<svg xmlns="http://www.w3.org/2000/svg" xmlns:xlink="http://www.w3.org/1999/xlink" width="24" height="24" preserveAspectRatio="xMidYMid meet" viewBox="0 0 24 24" style="-ms-transform: rotate(360deg); -webkit-transform: rotate(360deg); transform: rotate(360deg);"><g fill="none"><path d="M17.207 3.293a1 1 0 0 0-1.414 0l-2.5 2.5a1 1 0 0 0 1.414 1.414L16.5 5.414l1.793 1.793a1 1 0 1 0 1.414-1.414l-2.5-2.5zm-10.707.7a2.5 2.5 0 0 0-2.5 2.5v11a2.5 2.5 0 0 0 2.5 2.5h4a1 1 0 1 0 0-2h-4a.5.5 0 0 1-.5-.5v-11a.5.5 0 0 1 .5-.5h4a1 1 0 1 0 0-2h-4zm10.707 16.714l2.5-2.5a1 1 0 0 0-1.414-1.414L16.5 18.586l-1.793-1.793a1 1 0 0 0-1.414 1.414l2.5 2.5a1 1 0 0 0 1.414 0zM17.5 12a1 1 0 1 0-2 0a1 1 0 0 0 2 0zm-1 2a1 1 0 0 1 1 1v1a1 1 0 1 1-2 0v-1a1 1 0 0 1 1-1zm0-7a1 1 0 0 0-1 1v1a1 1 0 1 0 2 0V8a1 1 0 0 0-1-1z" fill="#4988FD"/></g><rect x="0" y="0" width="24" height="24" fill="rgba(0, 0, 0, 0)" /></svg>