<?xml version="1.0" standalone="no"?><!DOCTYPE svg PUBLIC "-//W3C//DTD SVG 1.1//EN" "http://www.w3.org/Graphics/SVG/1.1/DTD/svg11.dtd"><svg class="icon" width="200px" height="200.00px" viewBox="0 0 1024 1024" version="1.1" xmlns="http://www.w3.org/2000/svg"><path d="M434.129222 1024H108.900616A71.090424 71.090424 0 0 1 38.787646 952.475152V505.949091A71.090424 71.090424 0 0 1 108.900616 434.424242h325.228606A71.090424 71.090424 0 0 1 504.242192 505.949091V952.630303a71.059394 71.059394 0 0 1-70.11297 71.369697z m0 0" fill="#CDE7F7" /><path d="M731.089222 0H266.705222A89.274182 89.274182 0 0 0 178.42401 89.832727v844.334546A89.274182 89.274182 0 0 0 266.705222 1024h630.225454A89.274182 89.274182 0 0 0 985.211888 934.167273V238.157576z m0 0" fill="#3EA8FF" /><path d="M736.969464 0v201.69697a30.68897 30.68897 0 0 0 31.030303 31.030303h217.212121L736.969464 0" fill="#82C7FF" /><path d="M589.699646 297.890909a157.618424 157.618424 0 0 0-169.208242 168.494546h75.667394a121.204364 121.204364 0 0 1 19.285333-73.541819 79.934061 79.934061 0 0 1 69.973333-29.944242 81.082182 81.082182 0 0 1 59.966061 21.410909 82.230303 82.230303 0 0 1 20.712727 58.492121 84.045576 84.045576 0 0 1-19.285333 52.130909l-12.132849 13.653334c-44.264727 39.408485-71.369697 69.042424-81.392485 88.436363a151.443394 151.443394 0 0 0-13.575757 67.801212v12.25697h76.396606v-12.25697a97.450667 97.450667 0 0 1 11.434667-47.786666 124.695273 124.695273 0 0 1 29.261575-36.460606 707.770182 707.770182 0 0 0 60.695273-55.544243 140.986182 140.986182 0 0 0 26.375758-87.195151 130.497939 130.497939 0 0 0-42.123637-102.089697 161.109333 161.109333 0 0 0-112.081454-37.85697z m-12.148364 417.667879a47.988364 47.988364 0 0 0-36.398545 14.273939 45.924848 45.924848 0 0 0-15.716849 36.460606 52.25503 52.25503 0 0 0 52.115394 51.355152 55.482182 55.482182 0 0 0 37.841455-14.27394 50.20703 50.20703 0 0 0 15.003151-37.081212 46.948848 46.948848 0 0 0-15.003151-36.460606 51.370667 51.370667 0 0 0-37.841455-14.273939z" fill="#FFFFFF" /></svg>