<?xml version="1.0" standalone="no"?><!DOCTYPE svg PUBLIC "-//W3C//DTD SVG 1.1//EN" "http://www.w3.org/Graphics/SVG/1.1/DTD/svg11.dtd"><svg class="icon" width="200px" height="200.00px" viewBox="0 0 1024 1024" version="1.1" xmlns="http://www.w3.org/2000/svg"><path d="M512 1023.968a512 512 0 1 1 512-512 512 512 0 0 1-512 512z" fill="#EFEFEF" /><path d="M525.248 261.696a162.592 162.592 0 0 1 113.6 38.624 131.52 131.52 0 0 1 43.648 104.128 140.8 140.8 0 0 1-27.648 88.8 738.784 738.784 0 0 1-61.152 56.8 123.136 123.136 0 0 0-30.624 37.824 97.984 97.984 0 0 0-11.648 48v12.352h-77.952v-12.352a144.8 144.8 0 0 1 14.528-69.152 360.8 360.8 0 0 1 82.272-90.272l12.352-13.824a85.056 85.056 0 0 0 20.352-53.152 82.752 82.752 0 0 0-21.152-59.648 84.608 84.608 0 0 0-61.952-21.824 80.288 80.288 0 0 0-71.328 31.328 121.6 121.6 0 0 0-19.648 74.272h-76.448a160 160 0 0 1 172.8-172z m-13.024 425.952a52.384 52.384 0 0 1 38.624 14.528 48.416 48.416 0 0 1 15.328 37.152 51.584 51.584 0 0 1-16 37.824 54.4 54.4 0 0 1-37.824 14.528 52.288 52.288 0 0 1-37.824-15.328 50.72 50.72 0 0 1-15.328-37.152 48.416 48.416 0 0 1 15.328-37.152 51.2 51.2 0 0 1 37.696-14.4z" fill="#1D7BF8" /></svg>