<?xml version="1.0" standalone="no"?><!DOCTYPE svg PUBLIC "-//W3C//DTD SVG 1.1//EN" "http://www.w3.org/Graphics/SVG/1.1/DTD/svg11.dtd"><svg t="1621344421865" class="icon" viewBox="0 0 1152 1024" version="1.1" xmlns="http://www.w3.org/2000/svg" p-id="16766" xmlns:xlink="http://www.w3.org/1999/xlink" width="225" height="200"><defs><style type="text/css"></style></defs><path d="M1040.256 717.568c0 20.032-12.672 36.224-28.352 36.224s-28.352-16.192-28.352-36.224V350.464c0-20.032 12.672-36.288 28.352-36.288s28.352 16.256 28.352 36.288v367.104z" p-id="16767" data-spm-anchor-id="a313x.7781069.0.i20" class="selected" fill="#4988FD"></path><path d="M1070.976 3.008h-492.8C410.944 3.008 243.84 2.88 76.8 3.008 25.28 3.136 4.48 22.848 4.48 73.408c-0.256 285.44-0.256 571.072 0 856.704 0 52.48 20.608 72.576 72.96 72.576 331.392 0.128 662.912 0.128 994.24 0 56.32 0 75.2-19.2 75.2-76.16 0.128-282.688 0.128-565.44 0.128-848.128 0-56.256-19.456-75.392-76.096-75.392z m-636.8 215.68H716.8v190.08H434.24v-190.08z m-356.864 0.704H362.24v192c-90.496 0-178.304 0.448-266.048-0.704-6.4-0.128-17.984-11.136-18.112-17.28-1.408-56.96-0.768-114.176-0.768-174.016z m284.672 257.664v190.976H79.488V477.056h282.496z m0.896 451.2H79.104v-192.64H362.88v192.64z m354.112 1.216h-282.24v-192.96h282.24v192.96z m0.384-261.184H433.472V477.952h283.904v190.336z m71.04 259.648V736h144.32v-65.472h-144.512c0-66.368 0-128.128-0.128-192.512h144.64V409.6h-143.872V218.624h283.008l0.64 709.376H788.48z" p-id="16768" data-spm-anchor-id="a313x.7781069.0.i18" class="selected" fill="#4988FD"></path></svg>