<?xml version="1.0" standalone="no"?><!DOCTYPE svg PUBLIC "-//W3C//DTD SVG 1.1//EN" "http://www.w3.org/Graphics/SVG/1.1/DTD/svg11.dtd"><svg t="1621312791882" class="icon" viewBox="0 0 1024 1024" version="1.1" xmlns="http://www.w3.org/2000/svg" p-id="104796" xmlns:xlink="http://www.w3.org/1999/xlink" width="200" height="200"><defs><style type="text/css"></style></defs><path d="M0 438.789235v522.15919A68.743647 68.743647 0 0 0 73.131539 1023.841548h877.57847a68.743647 68.743647 0 0 0 73.131539-62.893123V438.789235H0z" fill="#F0F0F1" p-id="104797"></path><path d="M950.710009 97.508719h-877.57847A73.131539 73.131539 0 0 0 0 170.640258V438.789235h1023.841548V170.640258A73.131539 73.131539 0 0 0 950.710009 97.508719z" fill="#EC5044" p-id="104798"></path><path d="M274.487044 292.526157a48.754359 48.754359 0 0 1-48.75436-48.75436V48.754359a48.754359 48.754359 0 0 1 97.508719 0v195.017438a48.754359 48.754359 0 0 1-48.754359 48.75436zM762.030638 292.526157a48.754359 48.754359 0 0 1-48.754359-48.75436V48.754359a48.754359 48.754359 0 0 1 97.508719 0v195.017438a48.754359 48.754359 0 0 1-48.75436 48.75436zM448.540107 877.57847a48.754359 48.754359 0 0 1-35.103139-14.626308l-131.63677-135.049575a48.754359 48.754359 0 1 1 69.718734-68.256104l97.508718 100.433981 223.78251-211.106377a48.754359 48.754359 0 1 1 66.793473 71.181365l-258.398105 243.771797a48.754359 48.754359 0 0 1-32.665421 13.651221z" fill="#495660" p-id="104799"></path></svg>