<?xml version="1.0" standalone="no"?><!DOCTYPE svg PUBLIC "-//W3C//DTD SVG 1.1//EN" "http://www.w3.org/Graphics/SVG/1.1/DTD/svg11.dtd"><svg t="1621309601150" class="icon" viewBox="0 0 1216 1024" version="1.1" xmlns="http://www.w3.org/2000/svg" p-id="38580" xmlns:xlink="http://www.w3.org/1999/xlink" width="237.5" height="200"><defs><style type="text/css"></style></defs><path d="M342.656 90.688a48 48 0 0 1 45.056 31.488l139.328 379.968 46.08 125.632 0.768 2.112 92.48 252.288a48 48 0 0 1-90.112 33.024l-81.28-221.888H190.336L109.12 915.2a48 48 0 0 1-90.24-33.024l92.544-252.288a47.232 47.232 0 0 1 0.768-2.112l46.08-125.632L297.6 122.24a48 48 0 0 1 45.056-31.488zM225.6 597.312h234.112l-22.784-62.08-94.272-257.152-94.272 257.088-22.784 62.144zM985.408 405.12c-58.496-16.192-136.96 1.92-198.912 30.464a48 48 0 1 1-40.192-87.168c69.76-32.192 173.76-60.992 264.704-35.84 47.36 13.056 91.008 40.896 122.048 88.896 30.4 47.104 46.144 109.696 46.144 188.672v288.256h-96V590.144c0-67.008-13.44-109.696-30.784-136.576a111.744 111.744 0 0 0-67.008-48.448z m145.792 521.28a48 48 0 0 1-48-48h96a48 48 0 0 1-48 48z" p-id="38581" data-spm-anchor-id="a313x.7781069.0.i69" class="selected" fill="#4988FD"></path><path d="M1097.856 540.992l10.88 1.792a48 48 0 1 1-15.808 94.72l-7.168-1.28c-61.696-10.24-133.888-22.336-194.88-13.76-30.72 4.288-54.592 13.44-71.68 27.52-15.488 12.8-28.864 32.512-35.2 65.728 1.472 67.008 39.488 107.392 89.6 120.576 53.12 14.016 127.36-1.408 193.28-67.328a38.528 38.528 0 0 0 6.272-12.544c2.88-8.128 5.12-18.176 6.784-28.992 3.2-21.696 3.264-41.6 3.264-46.08a48 48 0 0 1 96 0v0.128c0 5.76 0 31.36-4.352 60.16a254.528 254.528 0 0 1-11.264 46.976 128.64 128.64 0 0 1-28.8 48.256c-86.144 86.08-194.368 116.288-285.568 92.288-93.312-24.576-161.216-104.448-161.216-217.408a48 48 0 0 1 0.64-7.936c9.28-55.552 33.408-98.176 69.568-127.936 35.2-28.992 77.888-42.688 119.296-48.512 76.224-10.688 161.92 3.776 220.352 13.632z" p-id="38582" data-spm-anchor-id="a313x.7781069.0.i67" class="selected" fill="#4988FD"></path></svg>