<?xml version="1.0" standalone="no"?><!DOCTYPE svg PUBLIC "-//W3C//DTD SVG 1.1//EN" "http://www.w3.org/Graphics/SVG/1.1/DTD/svg11.dtd"><svg t="1621308947351" class="icon" viewBox="0 0 1024 1024" version="1.1" xmlns="http://www.w3.org/2000/svg" p-id="6233" xmlns:xlink="http://www.w3.org/1999/xlink" width="200" height="200"><defs><style type="text/css"></style></defs><path d="M304 236h416c44.184 0 80 35.818 80 80v440c0 44.184-35.816 80-80 80H304c-44.182 0-80-35.816-80-80V316c0-44.182 35.818-80 80-80z" fill="#4988FD" p-id="6234"></path><path d="M720 836H304c-44.112 0-80-35.888-80-80V316c0-44.112 35.888-80 80-80h416c44.112 0 80 35.888 80 80v440c0 44.112-35.888 80-80 80zM304 296c-11.028 0-20 8.972-20 20v440c0 11.028 8.972 20 20 20h416c11.028 0 20-8.972 20-20V316c0-11.028-8.972-20-20-20H304z" fill="#4988FD" p-id="6235"></path><path d="M368 196h60v140h-60zM596 196h60v140h-60z" fill="#DFECFD" p-id="6236"></path><path d="M415.834 686.168a29.9 29.9 0 0 1-21.212-8.788c-11.716-11.714-11.716-30.71 0-42.426l192.334-192.334c11.714-11.716 30.71-11.716 42.426 0 11.716 11.714 11.716 30.71 0 42.426l-192.334 192.334a29.908 29.908 0 0 1-21.214 8.788z" fill="#FFFFFF" p-id="6237"></path><path d="M608.168 686.166a29.9 29.9 0 0 1-21.212-8.788l-192.334-192.334c-11.716-11.716-11.716-30.71 0-42.426 11.714-11.716 30.71-11.716 42.426 0l192.334 192.334c11.716 11.714 11.716 30.71 0 42.426a29.908 29.908 0 0 1-21.214 8.788z" fill="#FFFFFF" p-id="6238"></path></svg>