<?xml version="1.0" standalone="no"?><!DOCTYPE svg PUBLIC "-//W3C//DTD SVG 1.1//EN" "http://www.w3.org/Graphics/SVG/1.1/DTD/svg11.dtd"><svg t="1621304923252" class="icon" viewBox="0 0 1024 1024" version="1.1" xmlns="http://www.w3.org/2000/svg" p-id="1278" xmlns:xlink="http://www.w3.org/1999/xlink" width="200" height="200"><defs><style type="text/css"></style></defs><path d="M75.905251 6.275965h872.189498C988.294848 6.275965 1020.862018 46.136823 1020.862018 95.326818v839.622329c0 49.189995-32.567169 89.050853-72.767269 89.050853H75.905251C35.705152 1024 3.137982 983.799901 3.137982 934.949147V95.326818C3.137982 46.136823 35.705152 6.275965 75.905251 6.275965z" fill="#CCDFFA" p-id="1279"></path><path d="M270.290542 439.656783L223.644857 486.472089 314.391917 576.710287 223.644857 667.966208l46.815305 46.815306L408.022528 576.710287z m243.744906 218.132185H732.506874v72.597648H514.035448zM75.905251 0h872.189498C988.294848 0 1020.862018 37.146927 1020.862018 83.11413V237.468942H3.137982V83.11413C3.137982 37.146927 35.705152 0 75.905251 0z" fill="#4988FD" p-id="1280" data-spm-anchor-id="a313x.7781069.0.i0" class="selected"></path><path d="M567.296339 116.02054m-42.405168 0a42.405168 42.405168 0 1 0 84.810336 0 42.405168 42.405168 0 1 0-84.810336 0Z" fill="#FFFFFF" p-id="1281"></path><path d="M719.954945 116.02054m-42.405169 0a42.405168 42.405168 0 1 0 84.810337 0 42.405168 42.405168 0 1 0-84.810337 0Z" fill="#FFFFFF" p-id="1282"></path><path d="M872.61355 116.02054m-42.405168 0a42.405168 42.405168 0 1 0 84.810336 0 42.405168 42.405168 0 1 0-84.810336 0Z" fill="#FFFFFF" p-id="1283"></path></svg>