<?xml version="1.0" standalone="no"?><!DOCTYPE svg PUBLIC "-//W3C//DTD SVG 1.1//EN" "http://www.w3.org/Graphics/SVG/1.1/DTD/svg11.dtd"><svg t="1621305083455" class="icon" viewBox="0 0 1024 1024" version="1.1" xmlns="http://www.w3.org/2000/svg" p-id="1246" data-spm-anchor-id="a313x.7781069.0.i0" xmlns:xlink="http://www.w3.org/1999/xlink" width="200" height="200"><defs><style type="text/css"></style></defs><path d="M90.125 90.125m48.21428595 0l747.3214281 0q48.21428595 0 48.21428595 48.21428595l0 747.3214281q0 48.21428595-48.21428595 48.21428595l-747.3214281 0q-48.21428595 0-48.21428595-48.21428595l0-747.3214281q0-48.21428595 48.21428595-48.21428595Z" fill="#4988FD" p-id="1247" data-spm-anchor-id="a313x.7781069.0.i1" class="selected"></path><path d="M307.08928595 307.08928595h409.8214281v409.8214281H307.08928595z" fill="#D8D8D8" fill-opacity="0" p-id="1248"></path><path d="M456.81875 387.66741095v-63.05223203s0-3.15803595-6.30401798-5.25535785c-5.25535702-1.04866095-10.51071405 2.09732107-10.51071405 2.0973219-2.09732107 3.15803595-110.35044608 78.83035702-110.3504469 78.83035703S319.14285703 405.54285702 319.14285703 416.05357108c0 10.51071405 7.35267893 14.70535702 7.35267892 14.70535785l110.3625 75.67232107s7.35267893 2.109375 12.60803513 1.04866094c6.30401798-1.04866095 6.30401798-6.30401798 6.30401797-6.30401796V442.33035702h107.20446488s85.134375 11.57142893 85.134375 43.09151798c0 0-1.06071405-98.79107108-87.24375-98.79107107m6.31607107 252.24508904v62.00357109s1.04866095 4.20669607 8.40133905 4.20669689c4.20669607 1.04866095 7.35267893-2.109375 8.41339298-2.109375 2.09732107-1.04866095 110.35044608-77.76964297 110.3504469-77.76964298s10.51071405-5.25535702 10.51071405-15.7660719c0-10.51071405-7.35267893-14.70535702-7.35267893-14.70535701l-110.3625-75.67232109s-4.19464298-3.15803595-10.51071405-1.06071405c-7.35267893 2.109375-8.40133905 6.31607107-8.40133905 6.31607108v58.84553595h-109.30178595s-85.134375-11.559375-85.134375-43.09151798c0 0 1.04866095 98.803125 87.23169608 98.803125" fill="#FFFFFF" p-id="1249"></path></svg>