<?xml version="1.0" standalone="no"?><!DOCTYPE svg PUBLIC "-//W3C//DTD SVG 1.1//EN" "http://www.w3.org/Graphics/SVG/1.1/DTD/svg11.dtd"><svg t="1621303045212" class="icon" viewBox="0 0 1024 1024" version="1.1" xmlns="http://www.w3.org/2000/svg" p-id="6208" xmlns:xlink="http://www.w3.org/1999/xlink" width="200" height="200"><defs><style type="text/css"></style></defs><path d="M469.5 192H732c55.228 0 100 44.772 100 100v262.5c0 55.228-44.772 100-100 100H469.5c-55.228 0-100-44.772-100-100V292c0-55.228 44.772-100 100-100z" fill="#4988FD" p-id="6209"></path><path d="M380.75 280.75h262.5c55.228 0 100 44.772 100 100v262.5c0 55.228-44.772 100-100 100h-262.5c-55.228 0-100-44.772-100-100v-262.5c0-55.228 44.772-100 100-100z" fill="#DFECFD" p-id="6210"></path><path d="M292 369.5h262.5c55.228 0 100 44.772 100 100V732c0 55.228-44.772 100-100 100H292c-55.228 0-100-44.772-100-100V469.5c0-55.228 44.772-100 100-100z" fill="#4988FD" p-id="6211"></path></svg>