<?xml version="1.0" standalone="no"?><!DOCTYPE svg PUBLIC "-//W3C//DTD SVG 1.1//EN" "http://www.w3.org/Graphics/SVG/1.1/DTD/svg11.dtd"><svg t="1621304580516" class="icon" viewBox="0 0 1026 1024" version="1.1" xmlns="http://www.w3.org/2000/svg" p-id="13078" xmlns:xlink="http://www.w3.org/1999/xlink" width="200.390625" height="200"><defs><style type="text/css"></style></defs><path d="M341.333333 944.287425v-171.688623H85.844311V83.800399h596.822356v171.688623h255.489022v688.798403H341.333333z" fill="#FFFFFF" p-id="13079"></path><path d="M809.389222 425.133733H468.055888c-24.526946 0-42.922156 18.39521-42.922155 42.922155 0 24.526946 18.39521 42.922156 42.922155 42.922156h341.333334c24.526946 0 42.922156-18.39521 42.922155-42.922156 0-22.483034-20.439122-42.922156-42.922155-42.922155z m126.722554-255.489022h-169.64471V85.844311c0-47.00998-38.834331-85.844311-85.844312-85.844311H85.844311C38.834331 0 0 38.834331 0 85.844311v680.622755c0 47.00998 38.834331 85.844311 85.844311 85.844311h169.644711v85.844312c0 47.00998 38.834331 85.844311 85.844311 85.844311h596.822356c47.00998 0 85.844311-38.834331 85.844311-85.844311V255.489022c-2.043912-47.00998-40.878244-85.844311-87.888224-85.844311z m-680.622754 85.844311v510.978044H128.766467c-24.526946 0-42.922156-18.39521-42.922156-42.922156V128.766467c0-24.526946 18.39521-42.922156 42.922156-42.922156h510.978044c24.526946 0 42.922156 18.39521 42.922156 42.922156v42.922156H341.333333c-47.00998-2.043912-85.844311 36.790419-85.844311 83.800399z m680.622754 637.700599c0 24.526946-18.39521 42.922156-42.922155 42.922155h-510.978044c-24.526946 0-42.922156-18.39521-42.922156-42.922155V298.411178c0-24.526946 18.39521-42.922156 42.922156-42.922156h510.978044c24.526946 0 42.922156 18.39521 42.922155 42.922156v594.778443z m-126.722554-253.44511H468.055888c-24.526946 0-42.922156 18.39521-42.922155 42.922156 0 24.526946 18.39521 42.922156 42.922155 42.922155h341.333334c24.526946 0 42.922156-18.39521 42.922155-42.922155 0-24.526946-20.439122-42.922156-42.922155-42.922156z" fill="#497FE1" p-id="13080"></path></svg>