<?xml version="1.0" standalone="no"?><!DOCTYPE svg PUBLIC "-//W3C//DTD SVG 1.1//EN" "http://www.w3.org/Graphics/SVG/1.1/DTD/svg11.dtd"><svg t="1621310270719" class="icon" viewBox="0 0 1024 1024" version="1.1" xmlns="http://www.w3.org/2000/svg" p-id="65598" xmlns:xlink="http://www.w3.org/1999/xlink" width="200" height="200"><defs><style type="text/css"></style></defs><path d="M512 0C229.2 0 0 229.2 0 512s229.2 512 512 512 512-229.2 512-512S794.8 0 512 0z m-5.5 716.8c2.1 2.3 4.5 3.4 6.9 3.4 4.1 0 8.2-1.8 12.4-5.5 10.9-9 24-25.2 39.3-48.7l12.4 7.3C540.8 737.1 502 769 460.7 769c-15.8 0-28.3-4.5-37.7-13.3-9.4-8.8-14-20-14-33.6 0-9 2.1-20.3 6.2-34.2l50.5-173.7c4.9-16.7 7.3-29.3 7.3-37.8 0-5.3-2.3-10-6.9-14.1-4.6-4.1-10.9-6.2-18.9-6.2-3.6 0-8 0.1-13.1 0.3l4.7-14.6 123.3-20 22 0.3-74.7 258.2c-4.1 14.7-6.2 24.5-6.2 29 0 2.7 1.1 5.1 3.3 7.5z m92.9-370.7c-10.5 10.4-23.1 15.6-37.8 15.6-14.6 0-27-5.2-37.5-15.6-10.5-10.4-15.6-23-15.6-37.8 0-14.7 5.2-27.3 15.4-37.8 10.3-10.4 22.8-15.6 37.7-15.6 15 0 27.7 5.2 38 15.6 10.3 10.4 15.4 23 15.4 37.8 0 14.8-5.3 27.4-15.6 37.8z" p-id="65599" data-spm-anchor-id="a313x.7781069.0.i79" class="" fill="#4988FD"></path></svg>