<?xml version="1.0" standalone="no"?><!DOCTYPE svg PUBLIC "-//W3C//DTD SVG 1.1//EN" "http://www.w3.org/Graphics/SVG/1.1/DTD/svg11.dtd"><svg t="1621350078463" class="icon" viewBox="0 0 1068 1024" version="1.1" xmlns="http://www.w3.org/2000/svg" p-id="14041" xmlns:xlink="http://www.w3.org/1999/xlink" width="208.59375" height="200"><defs><style type="text/css"></style></defs><path d="M176.492341 377.978456l35.093678-53.059407L338.835507 409.255579 303.74183 462.221899z m558.520068 171.698377l-17.174493-61.204491 147.495842-41.190855 17.174492 61.204491z m-433.551203 314.167538l-47.613835-41.889005 101.138675-114.356984 47.706923 42.168265zM635.316577 365.179037l-55.06077-31.7891 50.871869-88.106541 55.06077 31.789101z m20.851415 399.481478l48.544703-41.097768 98.578792 116.358347-48.544703 41.097769z" p-id="14042" fill="#4988FD"></path><path d="M521.518113 807.945821a254.405891 254.405891 0 1 1 254.40589-254.405891 255.150584 255.150584 0 0 1-254.40589 254.405891z m0-445.187037a190.82769 190.82769 0 1 0 190.827689 190.827689 191.339666 191.339666 0 0 0-190.827689-191.013863z m-394.315168 76.331076A127.202945 127.202945 0 1 1 254.405891 311.886914a127.575292 127.575292 0 0 1-127.202946 127.016772z m0-190.82769a63.578201 63.578201 0 1 0 63.578201 63.578201 63.717831 63.717831 0 0 0-63.578201-63.764374zM228.760511 1024a127.202945 127.202945 0 1 1 127.202945-127.202945A127.575292 127.575292 0 0 1 228.760511 1024z m0-190.82769a63.578201 63.578201 0 1 0 63.578201 63.578201 60.087451 60.087451 0 0 0-63.578201-63.531657z m712.113086-248.029453a127.202945 127.202945 0 1 1 127.202945-127.202945 127.575292 127.575292 0 0 1-126.784055 127.202945z m0-190.82769a63.578201 63.578201 0 1 0 63.578201 63.578201 60.087451 60.087451 0 0 0-63.159311-63.531657z m-228.946685-76.331075a161.551929 161.551929 0 0 1-158.992045-158.992046 158.992046 158.992046 0 1 1 158.992045 158.992046z m0-254.405891a95.413845 95.413845 0 1 0 95.413845 95.413845 93.645198 93.645198 0 0 0-95.041498-95.367302z m101.743739 928.539612a95.413845 95.413845 0 1 1 95.413845-95.413845 97.741012 97.741012 0 0 1-94.994955 95.506932z m0-127.202945a31.7891 31.7891 0 1 0 31.789101 31.7891 30.020454 30.020454 0 0 0-31.370211-31.696014z" p-id="14043" fill="#4988FD"></path></svg>