<?xml version="1.0" standalone="no"?><!DOCTYPE svg PUBLIC "-//W3C//DTD SVG 1.1//EN" "http://www.w3.org/Graphics/SVG/1.1/DTD/svg11.dtd"><svg t="1621349628511" class="icon" viewBox="0 0 1024 1024" version="1.1" xmlns="http://www.w3.org/2000/svg" p-id="8221" xmlns:xlink="http://www.w3.org/1999/xlink" width="200" height="200"><defs><style type="text/css"></style></defs><path d="M621.312 122.112a198.4 198.4 0 0 1 288.64 272.064l-8.064 8.512-163.648 163.648a33.088 33.088 0 0 1-46.72 0l-23.424-23.424a33.088 33.088 0 0 1 0-46.72l163.648-163.648a99.2 99.2 0 0 0-133.184-146.752l-7.04 6.4-163.712 163.712a33.088 33.088 0 0 1-46.72 0l-23.424-23.36a33.088 33.088 0 0 1 0-46.784l163.648-163.648zM402.688 901.888a198.4 198.4 0 0 1-288.64-272.064l8.064-8.512 163.648-163.648a33.088 33.088 0 0 1 46.72 0l23.424 23.424a33.088 33.088 0 0 1 0 46.72l-163.648 163.648a99.2 99.2 0 0 0 133.184 146.752l7.04-6.4 163.712-163.712a33.088 33.088 0 0 1 46.72 0l23.424 23.36a33.088 33.088 0 0 1 0 46.784l-163.648 163.648zM204.8 352a19.2 19.2 0 0 1 19.2 19.2v25.6a19.2 19.2 0 0 1-19.2 19.2H83.2a19.2 19.2 0 0 1-19.2-19.2v-25.6a19.2 19.2 0 0 1 19.2-19.2h121.6z m-40.576-233.024L328.96 283.776a19.2 19.2 0 0 1 0 27.2l-18.048 18.048a19.2 19.2 0 0 1-27.2 0L119.04 164.224a19.2 19.2 0 0 1 0-27.2l18.048-18.048a19.2 19.2 0 0 1 27.2 0zM396.8 64a19.2 19.2 0 0 1 19.2 19.2v121.6a19.2 19.2 0 0 1-19.2 19.2h-25.6a19.2 19.2 0 0 1-19.2-19.2V83.2a19.2 19.2 0 0 1 19.2-19.2h25.6zM819.2 672a19.2 19.2 0 0 1-19.2-19.2v-25.6a19.2 19.2 0 0 1 19.2-19.2h121.6a19.2 19.2 0 0 1 19.2 19.2v25.6a19.2 19.2 0 0 1-19.2 19.2h-121.6z m40.576 233.024l-164.8-164.8a19.2 19.2 0 0 1 0-27.2l18.048-18.048a19.2 19.2 0 0 1 27.2 0l164.8 164.8a19.2 19.2 0 0 1 0 27.2l-18.048 18.048a19.2 19.2 0 0 1-27.2 0zM627.2 960a19.2 19.2 0 0 1-19.2-19.2v-121.6a19.2 19.2 0 0 1 19.2-19.2h25.6a19.2 19.2 0 0 1 19.2 19.2v121.6a19.2 19.2 0 0 1-19.2 19.2h-25.6z" p-id="8222" fill="#4988FD"></path></svg>