<?xml version="1.0" standalone="no"?><!DOCTYPE svg PUBLIC "-//W3C//DTD SVG 1.1//EN" "http://www.w3.org/Graphics/SVG/1.1/DTD/svg11.dtd"><svg t="1621309531024" class="icon" viewBox="0 0 1024 1024" version="1.1" xmlns="http://www.w3.org/2000/svg" p-id="37116" xmlns:xlink="http://www.w3.org/1999/xlink" width="200" height="200"><defs><style type="text/css"></style></defs><path d="M96 672c0 52.864 43.264 96 96 96 52.8 0 96-43.264 96-96S244.736 576 192 576c-52.8 0-96 42.432-96 96z m192-320C288 299.072 244.736 256 192 256c-52.8 0-96 43.264-96 96S139.264 448 192 448c52.8 0 96-42.432 96-96zM512 768c52.8 0 96-43.264 96-96S564.736 576 512 576c-52.8 0-96 42.432-96 96 0 52.864 43.264 96 96 96z m0-320c52.8 0 96-43.264 96-96C608 299.072 564.736 256 512 256c-52.8 0-96 43.264-96 96S459.264 448 512 448z m320 320c52.8 0 96-43.264 96-96S884.736 576 832 576c-52.8 0-96 42.432-96 96 0 52.864 43.264 96 96 96z m-96-416c0 52.736 43.264 96 96 96 52.8 0 96-43.264 96-96 0-52.864-43.264-96-96-96-52.8 0-96 43.264-96 96z" p-id="37117" data-spm-anchor-id="a313x.7781069.0.i64" class="selected" fill="#4988FD"></path></svg>