<?xml version="1.0" standalone="no"?><!DOCTYPE svg PUBLIC "-//W3C//DTD SVG 1.1//EN" "http://www.w3.org/Graphics/SVG/1.1/DTD/svg11.dtd"><svg t="1621303263633" class="icon" viewBox="0 0 1024 1024" version="1.1" xmlns="http://www.w3.org/2000/svg" p-id="6635" xmlns:xlink="http://www.w3.org/1999/xlink" width="200" height="200"><defs><style type="text/css"></style></defs><path d="M385.648 806.016l-163.934-0.64 0.258-163.038-0.186-0.186 0.186-0.188v-0.734l0.364 0.368 415.6-415.6 164.056 164.052L386.32 805.718l0.296 0.296h-0.6l-0.2 0.2-0.168-0.198z" fill="#4988FD" p-id="6636"></path><path d="M385.818 836.214a30.116 30.116 0 0 1-3.564-0.214l-160.656-0.626c-16.542-0.064-29.91-13.506-29.882-30.046l0.252-159.878a30.174 30.174 0 0 1 0.518-9.754 30.018 30.018 0 0 1 12.566-19.24l411.67-411.67c11.714-11.716 30.71-11.716 42.426 0l164.056 164.052a30 30 0 0 1 0 42.426L411.072 823.392a30.028 30.028 0 0 1-17.658 11.844c-2.46 0.644-5.014 0.978-7.596 0.978z m-134.056-60.722l121.882 0.476 385.92-385.918-121.628-121.626-385.982 385.984-0.192 121.084z" fill="#4988FD" p-id="6637"></path><path d="M377.256 682.744a29.9 29.9 0 0 1-21.212-8.788c-11.716-11.714-11.716-30.71 0-42.426l135.744-135.744c11.714-11.716 30.71-11.716 42.426 0 11.716 11.714 11.716 30.71 0 42.426l-135.744 135.744a29.908 29.908 0 0 1-21.214 8.788z" fill="#DFECFD" p-id="6638"></path><path d="M540.046 281.36L746.62 487.936l-42.426 42.426L497.62 323.786z" fill="#FFFFFF" p-id="6639"></path><path d="M801.968 836H512c-16.568 0-30-13.432-30-30s13.432-30 30-30h289.968c16.568 0 30 13.432 30 30s-13.43 30-30 30z" fill="#4988FD" p-id="6640"></path></svg>