<?xml version="1.0" standalone="no"?><!DOCTYPE svg PUBLIC "-//W3C//DTD SVG 1.1//EN" "http://www.w3.org/Graphics/SVG/1.1/DTD/svg11.dtd"><svg t="1621313102882" class="icon" viewBox="0 0 1024 1024" version="1.1" xmlns="http://www.w3.org/2000/svg" p-id="110382" xmlns:xlink="http://www.w3.org/1999/xlink" width="200" height="200"><defs><style type="text/css"></style></defs><path d="M524.8 906.752l-104.448-58.368c-25.6-13.824-41.472-40.448-41.472-69.632V448.512c0-5.12-2.56-9.728-6.144-12.8l-240.64-193.024-2.56-3.072c-22.016-22.528-28.16-56.32-15.36-85.504 12.288-28.672 40.96-47.616 72.192-47.104h649.728c31.744 0 60.416 18.432 73.216 47.104s7.68 62.464-14.336 85.504l-3.072 3.072-243.712 195.072c-3.584 3.072-5.632 7.68-5.632 12.8v386.048c0.512 43.52-34.304 78.848-77.312 79.36h-1.536c-13.824 0.512-27.136-3.072-38.912-9.216z" p-id="110383" data-spm-anchor-id="a313x.7781069.0.i110" class="selected" fill="#4988FD"></path><path d="M705.536 760.32c-17.408 0-31.232-14.336-31.232-31.232 0-17.408 14.336-31.232 31.232-31.232h178.688c17.408 0 31.232 14.336 31.232 31.232 0 17.408-13.824 31.232-30.72 31.232h-179.2z m0-117.76c-17.408-1.024-30.72-15.872-29.696-33.28 1.024-15.872 13.824-28.672 29.696-29.696h178.688c17.408 0 31.232 14.336 31.232 31.232 0.512 16.896-12.8 30.72-29.184 31.232h-2.048l-178.688 0.512z m0-118.272c-17.408-1.024-30.72-15.872-29.696-33.28 1.024-15.872 13.824-28.672 29.696-29.696h178.688c17.408 0 31.232 14.336 31.232 31.232 0.512 16.896-12.8 30.72-29.184 31.232h-2.048l-178.688 0.512z" p-id="110384" data-spm-anchor-id="a313x.7781069.0.i112" class="selected" fill="#4988FD"></path></svg>