<?xml version="1.0" standalone="no"?><!DOCTYPE svg PUBLIC "-//W3C//DTD SVG 1.1//EN" "http://www.w3.org/Graphics/SVG/1.1/DTD/svg11.dtd"><svg t="1621443030968" class="icon" viewBox="0 0 1024 1024" version="1.1" xmlns="http://www.w3.org/2000/svg" p-id="5048" xmlns:xlink="http://www.w3.org/1999/xlink" width="20" height="20"><defs><style type="text/css"></style></defs><path d="M289.946958 641.397816l91.856474 91.856474c-90.658346 76.680187-222.851794 195.694228-250.00936 217.260531C62.302652 1004.829953 0.798752 1022.402496 0.798752 1022.402496s17.572543-61.5039 71.887675-130.99532c21.566303-27.157566 140.580343-159.351014 217.260531-250.00936z m712.886115-375.014041L756.817473 20.368175C740.043682 3.594384 715.282371-3.195008 692.517941 3.195008c-23.163807 5.99064-41.135725 23.962559-47.126365 47.126365-5.99064 23.163807 0.399376 47.525741 17.173167 64.299532l19.569422 19.569423-359.438377 254.00312-79.475819-79.475819c-25.959438-25.959438-68.293292-25.959438-94.25273 0s-25.959438 68.293292 0 94.25273l471.26365 471.26365c16.773791 16.773791 41.535101 23.563183 64.299532 17.173167 23.163807-5.99064 41.135725-23.962559 47.126365-47.126365 5.99064-23.163807-0.399376-47.525741-17.173167-64.299532l-79.475819-79.475819 253.603744-359.438377 19.569423 19.569422c25.959438 25.959438 68.293292 25.959438 94.25273 0 26.358814-25.959438 26.358814-68.293292 0.399376-94.25273z m0 0" p-id="5049" fill="#4988FD"></path></svg>