<?xml version="1.0" standalone="no"?><!DOCTYPE svg PUBLIC "-//W3C//DTD SVG 1.1//EN" "http://www.w3.org/Graphics/SVG/1.1/DTD/svg11.dtd"><svg t="1621303316008" class="icon" viewBox="0 0 1024 1024" version="1.1" xmlns="http://www.w3.org/2000/svg" p-id="6776" xmlns:xlink="http://www.w3.org/1999/xlink" width="200" height="200"><defs><style type="text/css"></style></defs><path d="M512 516m-320 0a320 320 0 1 0 640 0 320 320 0 1 0-640 0Z" fill="#4988FD" p-id="6777"></path><path d="M512 836C335.552 836 192 692.45 192 516 192 339.552 335.552 196 512 196c176.45 0 320 143.552 320 320 0 176.45-143.55 320-320 320z m0-580C368.636 256 252 372.636 252 516c0 143.366 116.636 260 260 260 143.366 0 260-116.634 260-260 0-143.364-116.634-260-260-260z" fill="#4988FD" p-id="6778"></path><path d="M512 516m-40 0a40 40 0 1 0 80 0 40 40 0 1 0-80 0Z" fill="#DFECFD" p-id="6779"></path><path d="M632 516m-40 0a40 40 0 1 0 80 0 40 40 0 1 0-80 0Z" fill="#DFECFD" p-id="6780"></path><path d="M392 516m-40 0a40 40 0 1 0 80 0 40 40 0 1 0-80 0Z" fill="#DFECFD" p-id="6781"></path></svg>