<?xml version="1.0" standalone="no"?><!DOCTYPE svg PUBLIC "-//W3C//DTD SVG 1.1//EN" "http://www.w3.org/Graphics/SVG/1.1/DTD/svg11.dtd"><svg t="1621303180182" class="icon" viewBox="0 0 1024 1024" version="1.1" xmlns="http://www.w3.org/2000/svg" p-id="6491" xmlns:xlink="http://www.w3.org/1999/xlink" width="200" height="200"><defs><style type="text/css"></style></defs><path d="M650.048 341.82l13.88 58.374-286.008 67.996-13.878-58.374z" fill="#4988FD" p-id="6492"></path><path d="M378.28 555.86l207.992 51.99-14.55 58.204-207.99-51.992z" fill="#DFECFD" p-id="6493"></path><path d="M652 192h140c22.092 0 40 17.908 40 40v140c0 22.092-17.908 40-40 40h-140c-22.092 0-40-17.908-40-40v-140c0-22.092 17.908-40 40-40z" fill="#4988FD" p-id="6494"></path><path d="M792 412h-140c-22.056 0-40-17.944-40-40v-140c0-22.056 17.944-40 40-40h140c22.056 0 40 17.944 40 40v140c0 22.056-17.944 40-40 40z m-120-60h100v-100h-100v100z" fill="#4988FD" p-id="6495"></path><path d="M652 612h140c22.092 0 40 17.908 40 40v140c0 22.092-17.908 40-40 40h-140c-22.092 0-40-17.908-40-40v-140c0-22.092 17.908-40 40-40z" fill="#DFECFD" p-id="6496"></path><path d="M792 832h-140c-22.056 0-40-17.944-40-40v-140c0-22.056 17.944-40 40-40h140c22.056 0 40 17.944 40 40v140c0 22.056-17.944 40-40 40z m-120-60h100v-100h-100v100z" fill="#DFECFD" p-id="6497"></path><path d="M232 402h140c22.092 0 40 17.908 40 40v140c0 22.092-17.908 40-40 40h-140c-22.092 0-40-17.908-40-40v-140c0-22.092 17.908-40 40-40z" fill="#4988FD" p-id="6498"></path><path d="M372 622h-140c-22.056 0-40-17.944-40-40v-140c0-22.056 17.944-40 40-40h140c22.056 0 40 17.944 40 40v140c0 22.056-17.944 40-40 40z m-120-60h100v-100h-100v100z" fill="#4988FD" p-id="6499"></path></svg>