<?xml version="1.0" standalone="no"?><!DOCTYPE svg PUBLIC "-//W3C//DTD SVG 1.1//EN" "http://www.w3.org/Graphics/SVG/1.1/DTD/svg11.dtd"><svg t="1621304973068" class="icon" viewBox="0 0 1024 1024" version="1.1" xmlns="http://www.w3.org/2000/svg" p-id="3915" xmlns:xlink="http://www.w3.org/1999/xlink" width="200" height="200"><defs><style type="text/css"></style></defs><path d="M197.762586 648.709172l156.537535-73.950384 4.460606 9.258667L202.230949 657.958788l-4.468363-9.249616z m0 0" fill="#8B93AE" p-id="3916"></path><path d="M350.926869 578.332444l40.340687-202.819232 10.159838 1.991111-40.34198 202.803717-10.158545-1.975596z m0 0" fill="#8B93AE" p-id="3917"></path><path d="M355.669333 584.644525l1.555394-10.155959 217.481051 32.855919-1.555394 10.153374-217.481051-32.853334z m37.731556-211.431434l196.835555-178.152727 6.988283 7.566222-196.852363 178.174707-6.971475-7.588202z m0 0" fill="#8B93AE" p-id="3918"></path><path d="M169.333657 371.76501h227.242666v10.258101H169.333657v-10.258101z m181.767757 208.814546l10.219313-1.658829 31.053576 188.322909-10.212848 1.664-31.060041-188.32808z m219.410101 35.538747l6.760727-7.780848L759.091717 763.866505l-6.771071 7.760162-181.809131-155.508364z m0 0" fill="#8B93AE" p-id="3919"></path><path d="M570.245172 608.726626l181.810424-165.581575 6.997333 7.557171-181.798788 165.564768-7.008969-7.540364z m0 0" fill="#8B93AE" p-id="3920"></path><path d="M568.473859 612.712727l10.300767-0.875313 19.69002 227.956364-10.300767 0.875313-19.69002-227.956364z m0 0" fill="#8B93AE" p-id="3921"></path><path d="M284.766384 767.760808c0 56.10796 45.889939 101.57899 102.493091 101.57899 56.608323 0 102.491798-45.47103 102.491798-101.57899 0-56.082101-45.883475-101.560889-102.491798-101.560889-56.603152 0.001293-102.493091 45.478788-102.493091 101.560889z m0 0M611.393939 446.660525c0 78.75103 64.424081 142.598465 143.896566 142.598465 79.481535 0 143.905616-63.847434 143.905616-142.598465 0-78.757495-64.424081-142.603636-143.905616-142.603636-79.472485 0-143.896566 63.847434-143.896566 142.603636z m0 0" fill="#4988FD" p-id="3922" data-spm-anchor-id="a313x.7781069.0.i4" class="selected"></path><path d="M137.243152 653.388283c0 34.275556 28.043636 62.065778 62.634666 62.065778s62.63596-27.790222 62.63596-62.065778c0-34.292364-28.043636-62.082586-62.63596-62.082586-34.59103 0.001293-62.634667 27.790222-62.634666 62.082586z m0 0M500.099879 612.350707c0 26.01503 14.007596 50.055758 36.748929 63.080727 22.742626 13.010747 50.760404 13.010747 73.505616 0 22.743919-13.02497 36.756687-37.065697 36.756687-63.080727 0-40.225616-32.916687-72.846222-73.501737-72.846222-40.601859 0-73.509495 32.620606-73.509495 72.846222z m0 0" fill="#9FC6DB" p-id="3923"></path><path d="M681.271596 767.760808c0 40.517818 33.137778 73.358222 74.018909 73.358222 40.890182 0 74.02796-32.840404 74.02796-73.358222 0-40.495838-33.137778-73.338828-74.02796-73.338828-40.881131 0.001293-74.018909 32.84299-74.018909 73.338828z m0 0M546.681535 840.104081c0 16.486141 8.892768 31.72202 23.306344 39.976081s32.161616 8.254061 46.575192 0 23.306343-23.489939 23.306343-39.976081c0-16.506828-8.892768-31.740121-23.306343-39.992889a46.979879 46.979879 0 0 0-46.575192 0c-14.413576 8.252768-23.306343 23.486061-23.306344 39.992889z m0 0" fill="#9FC6DB" p-id="3924"></path><path d="M122.749414 376.896646c0 25.501737 20.857535 46.165333 46.584243 46.165334 25.729293 0 46.585535-20.663596 46.585535-46.165334 0-25.49398-20.856242-46.171798-46.585535-46.171798-25.726707 0-46.584242 20.677818-46.584243 46.171798z m0 0" fill="#4988FD" p-id="3925" data-spm-anchor-id="a313x.7781069.0.i7" class="selected"></path><path d="M309.617778 579.515475c0 16.496485 8.874667 31.729778 23.289535 39.982545s32.169374 8.252768 46.584243 0c14.413576-8.252768 23.298586-23.486061 23.298585-39.982545 0-16.492606-8.88501-31.732364-23.298585-39.981253a46.920404 46.920404 0 0 0-46.584243 0c-14.414869 8.248889-23.289535 23.488646-23.289535 39.981253z m0 0" fill="#9FC6DB" p-id="3926"></path><path d="M280.109253 376.896646c0 41.239273 22.202182 79.33802 58.234828 99.951192 36.035232 20.617051 80.429253 20.617051 116.465778 0 36.035232-20.613172 58.24-58.713212 58.24-99.951192 0-41.231515-22.204768-79.335434-58.24-99.952484-36.036525-20.613172-80.430545-20.613172-116.465778 0-36.032646 20.618343-58.234828 58.72097-58.234828 99.952484z m0 0" fill="#4988FD" p-id="3927" data-spm-anchor-id="a313x.7781069.0.i6" class="selected"></path><path d="M531.678384 198.900364c0 33.706667 27.580768 61.044364 61.601616 61.044363 34.014384 0 61.601616-27.337697 61.601616-61.044363 0-33.705374-27.587232-61.041778-61.601616-61.041778-34.020848 0-61.601616 27.337697-61.601616 61.041778z m0 0" fill="#9FC6DB" p-id="3928"></path></svg>