<?xml version="1.0" standalone="no"?><!DOCTYPE svg PUBLIC "-//W3C//DTD SVG 1.1//EN" "http://www.w3.org/Graphics/SVG/1.1/DTD/svg11.dtd"><svg t="1621439339529" class="icon" viewBox="0 0 1024 1024" version="1.1" xmlns="http://www.w3.org/2000/svg" p-id="11001" width="24" height="24" xmlns:xlink="http://www.w3.org/1999/xlink"><defs><style type="text/css"></style></defs><path d="M819.2 0H204.8a204.8 204.8 0 0 0-204.8 204.8v614.4a204.8 204.8 0 0 0 204.8 204.8h614.4a204.8 204.8 0 0 0 204.8-204.8V204.8a204.8 204.8 0 0 0-204.8-204.8z m-120.832 256a73.216 73.216 0 1 1-75.264 73.216A74.24 74.24 0 0 1 698.368 256z m168.448 517.12a68.096 68.096 0 0 1-51.2 42.496 8.704 8.704 0 0 0 0 3.584H236.032v-3.072a87.04 87.04 0 0 1-44.032-14.848A88.576 88.576 0 0 1 153.6 711.68a386.56 386.56 0 0 1 92.672-184.832C321.024 460.8 409.6 505.344 472.576 563.2c12.288 11.264 26.624 27.136 41.984 44.544a10.24 10.24 0 0 0 0 4.096l90.112 121.344a27.136 27.136 0 0 0 14.848 10.24v2.56a29.184 29.184 0 0 0 26.624-4.608 30.208 30.208 0 0 0 6.144-41.984L563.2 575.488a27.136 27.136 0 0 0-15.872-10.24 274.432 274.432 0 0 1 226.304 36.352A263.68 263.68 0 0 1 865.28 716.8a66.56 66.56 0 0 1 1.536 56.32z" fill="#1877FB" p-id="11002"></path></svg>