<?xml version="1.0" standalone="no"?><!DOCTYPE svg PUBLIC "-//W3C//DTD SVG 1.1//EN" "http://www.w3.org/Graphics/SVG/1.1/DTD/svg11.dtd"><svg t="1621475223351" class="icon" viewBox="0 0 1204 1024" version="1.1" xmlns="http://www.w3.org/2000/svg" p-id="10060" xmlns:xlink="http://www.w3.org/1999/xlink" width="23.515625" height="20"><defs><style type="text/css"></style></defs><path d="M150.587881 0.001205h903.527286A149.985529 149.985529 0 0 1 1204.703048 149.324147v725.351706A149.985529 149.985529 0 0 1 1054.115167 1023.998795h-903.527286A149.985529 149.985529 0 0 1 0 874.675853V149.324147A149.985529 149.985529 0 0 1 150.587881 0.001205z m737.519206 307.982334A198.053181 198.053181 0 1 0 1087.666147 505.976485h-199.619295q1.084233-197.992946 0.060235-197.992946zM1114.350319 479.593488a198.776003 198.776003 0 0 0-199.67953-197.992946q1.144468 0 0 197.992946 117.458547-0.361411 199.67953 0zM215.099729 256.121073a42.646488 42.646488 0 1 0 0 85.292975h258.228098a42.646488 42.646488 0 1 0 0-85.292975z m0 490.615316a42.646488 42.646488 0 1 0 0 85.353211h473.267592a42.646488 42.646488 0 1 0 0-85.353211z m0-245.337776a42.646488 42.646488 0 1 0 0 85.353211h344.304131a42.646488 42.646488 0 1 0 0-85.353211z" p-id="10061" fill="#4988FD"></path></svg>