<?xml version="1.0" standalone="no"?><!DOCTYPE svg PUBLIC "-//W3C//DTD SVG 1.1//EN" "http://www.w3.org/Graphics/SVG/1.1/DTD/svg11.dtd"><svg t="1621304455733" class="icon" viewBox="0 0 1024 1024" version="1.1" xmlns="http://www.w3.org/2000/svg" p-id="7604" xmlns:xlink="http://www.w3.org/1999/xlink" width="200" height="200"><defs><style type="text/css"></style></defs><path d="M0 0m70.892308 0l173.292307 0q70.892308 0 70.892308 70.892308l0 882.215384q0 70.892308-70.892308 70.892308l-173.292307 0q-70.892308 0-70.892308-70.892308l0-882.215384q0-70.892308 70.892308-70.892308Z" fill="#4988FD" p-id="7605" data-spm-anchor-id="a313x.7781069.0.i0" class="selected"></path><path d="M393.846154 0m70.892308 0l488.36923 0q70.892308 0 70.892308 70.892308l0 330.830769q0 70.892308-70.892308 70.892308l-488.36923 0q-70.892308 0-70.892308-70.892308l0-330.830769q0-70.892308 70.892308-70.892308Z" fill="#BED2FF" p-id="7606"></path><path d="M393.846154 551.384615m70.892308 0l133.907692 0q70.892308 0 70.892308 70.892308l0 330.830769q0 70.892308-70.892308 70.892308l-133.907692 0q-70.892308 0-70.892308-70.892308l0-330.830769q0-70.892308 70.892308-70.892308Z" fill="#4988FD" p-id="7607" data-spm-anchor-id="a313x.7781069.0.i2" class="selected"></path><path d="M748.307692 551.384615m70.892308 0l133.907692 0q70.892308 0 70.892308 70.892308l0 330.830769q0 70.892308-70.892308 70.892308l-133.907692 0q-70.892308 0-70.892308-70.892308l0-330.830769q0-70.892308 70.892308-70.892308Z" fill="#4988FD" p-id="7608" data-spm-anchor-id="a313x.7781069.0.i4" class=""></path></svg>