<?xml version="1.0" standalone="no"?><!DOCTYPE svg PUBLIC "-//W3C//DTD SVG 1.1//EN" "http://www.w3.org/Graphics/SVG/1.1/DTD/svg11.dtd"><svg t="1621312395324" class="icon" viewBox="0 0 1024 1024" version="1.1" xmlns="http://www.w3.org/2000/svg" p-id="95577" xmlns:xlink="http://www.w3.org/1999/xlink" width="200" height="200"><defs><style type="text/css"></style></defs><path d="M512 512m-468 0a468 468 0 1 0 936 0 468 468 0 1 0-936 0Z" fill="#4988FD" p-id="95578" data-spm-anchor-id="a313x.7781069.0.i86" class="selected"></path><path d="M533 427.8l-42 42.1 33 30.1c9 12 15 27.1 15 42.1s-6 30.1-18 42.1l-84.2 84.2c-24.1 24.1-60.1 24.1-84.2 0s-24.1-60.1 0-84.2l63.1-63.1-42.1-42.1-63.1 63.1c-48.1 48.1-48.1 123.3 0 171.4 24.1 24.1 54.1 36.1 84.2 36.1s63.1-12 84.2-36.1l84.2-84.2c24.1-21 36.1-51.1 36.1-84.2s-12-63.1-33.1-84.2L533 427.8z" fill="#FFFFFF" p-id="95579"></path><path d="M713.4 310.6c-48.1-48.1-123.3-48.1-171.4 0l-84.2 84.2c-48.1 48.1-48.1 123.3 0 171.4l33.1 30.1 42.1-42.1-33-33.2c-24.1-24.1-24.1-60.1 0-84.2l87.2-81.2c21-24.1 60.1-24.1 84.2 0s24.1 60.1 0 84.2L608.2 503l42.1 42.1 63.1-63.1c48.2-48.2 48.2-123.3 0-171.4z" fill="#FFFFFF" p-id="95580"></path></svg>