<?xml version="1.0" standalone="no"?><!DOCTYPE svg PUBLIC "-//W3C//DTD SVG 1.1//EN" "http://www.w3.org/Graphics/SVG/1.1/DTD/svg11.dtd"><svg t="1621439759105" class="icon" viewBox="0 0 1024 1024" version="1.1" xmlns="http://www.w3.org/2000/svg" p-id="12264" width="20" height="20" xmlns:xlink="http://www.w3.org/1999/xlink"><defs><style type="text/css"></style></defs><path d="M223.1 464.2m-33.1 0a33.1 33.1 0 1 0 66.2 0 33.1 33.1 0 1 0-66.2 0Z" fill="#4988FD" p-id="12265"></path><path d="M817.9 464.2m-33.1 0a33.1 33.1 0 1 0 66.2 0 33.1 33.1 0 1 0-66.2 0Z" fill="#4988FD" p-id="12266"></path><path d="M520.8 662.6c-106.4 0-193.5-87.1-193.5-193.5v-177c0-106.4 87.1-193.5 193.5-193.5s193.5 87.1 193.5 193.5v177c0.1 106.4-87 193.5-193.5 193.5zM681.3 893.1c0 18.2-14.9 33.1-33.1 33.1H393.4c-18.2 0-33.1-14.9-33.1-33.1 0-18.2 14.9-33.1 33.1-33.1h254.8c18.2 0 33.1 14.9 33.1 33.1z" fill="#4988FD" p-id="12267"></path><path d="M520.8 914.9c-18.2 0-33.1-14.9-33.1-33.1V772c0-18.2 14.9-33.1 33.1-33.1 18.2 0 33.1 14.9 33.1 33.1v109.9c0 18.2-14.9 33-33.1 33z" fill="#4988FD" p-id="12268"></path><path d="M460.7 787s27.3 1.5 27.1 18.5h66.1s-2.7-15.2 29.5-19.1l-91.2-23.2-31.5 23.8zM460.7 860.8s27.1 1.2 27.1-16.3l65.4-1.3s-0.7 22.9 30.2 16.9l-6.1 18.4H458.2l2.5-17.7z" fill="#4988FD" p-id="12269"></path><path d="M786.7 456.2c-1.9 8-1.4 1.5-1.9 8-10.3 140.4-122.7 262-264.2 262-141 0-253-108-264-247.7-0.2-2.2 0.3-11-0.8-19.1-0.7-5.6-16-14.6-23.4-13.4-19.4 3.1-42.3 15.5-42.3 15.5-0.1 8.4 0.6 10.8 1.2 19.3 13 174.4 154 311.8 329.7 311.8 176.1 0 317.5-138.1 329.8-313.1 0.6-8 1.6-22.1-3.5-22.6l-60.6-0.7z" fill="#4988FD" p-id="12270"></path></svg>