<?xml version="1.0" standalone="no"?><!DOCTYPE svg PUBLIC "-//W3C//DTD SVG 1.1//EN" "http://www.w3.org/Graphics/SVG/1.1/DTD/svg11.dtd"><svg t="1621309465781" class="icon" viewBox="0 0 1024 1024" version="1.1" xmlns="http://www.w3.org/2000/svg" p-id="32211" id="mx_n_1621309465783" xmlns:xlink="http://www.w3.org/1999/xlink" width="200" height="200"><defs><style type="text/css"></style></defs><path d="M959 349.4v550.8c0 33.1-26.9 60-60 60H219c-33.1 0-60-26.9-60-60v-776c0-33.1 26.9-60 60-60h454.8L959 349.4z" fill="#E9EAEE" p-id="32212"></path><path d="M725 349.4l234.1 212.1V349.4z" fill="#D2D6DD" p-id="32213"></path><path d="M672 64.2v245.2c0 22.1 17.9 40 40 40h245.2L672 64.2z" fill="#4988FD" p-id="32214" data-spm-anchor-id="a313x.7781069.0.i62" class="selected"></path><path d="M84 502m40 0l688 0q40 0 40 40l0 272q0 40-40 40l-688 0q-40 0-40-40l0-272q0-40 40-40Z" fill="#6C8699" p-id="32215"></path><path d="M64 482m40 0l688 0q40 0 40 40l0 272q0 40-40 40l-688 0q-40 0-40-40l0-272q0-40 40-40Z" fill="#4988FD" p-id="32216" data-spm-anchor-id="a313x.7781069.0.i61" class=""></path><path d="M429.56 774.76c2.453 3.307 7.093 4.853 13.92 4.64 4.907 0 8.747-0.693 11.52-2.08 2.773-1.387 4.8-3.2 6.08-5.44 1.28-2.24 1.973-4.853 2.08-7.84 0.107-2.987-0.053-6.08-0.48-9.28l-27.52-180.48c-1.28-7.893-4.427-13.92-9.44-18.08-5.013-4.16-10.613-6.24-16.8-6.24-6.4 0-12 1.653-16.8 4.96-4.8 3.307-8.587 9.973-11.36 20l-35.52 134.4-36.48-133.76c-2.987-10.24-6.827-17.067-11.52-20.48-4.693-3.413-10.453-5.12-17.28-5.12-6.827 0-12.533 2.027-17.12 6.08-4.587 4.053-7.413 9.813-8.48 17.28l-27.52 181.44c-1.493 8.96-0.96 15.307 1.6 19.04 2.56 3.733 7.147 5.6 13.76 5.6 8.107 0 13.707-1.867 16.8-5.6 3.093-3.733 5.173-9.44 6.24-17.12l15.04-113.28c0.853-5.12 2.08-7.68 3.68-7.68s3.147 2.56 4.64 7.68c5.973 20.693 12 41.12 18.08 61.28 6.08 20.16 12.213 40.587 18.4 61.28 0.64 2.347 1.333 4.32 2.08 5.92 0.747 1.6 1.867 2.987 3.36 4.16 1.493 1.173 3.413 2.027 5.76 2.56 2.347 0.533 5.333 0.8 8.96 0.8 6.827 0 11.467-1.227 13.92-3.68 2.453-2.453 4.213-5.707 5.28-9.76l35.84-122.88c1.493-4.907 3.093-7.36 4.8-7.36 1.707 0 2.987 2.453 3.84 7.36l15.36 115.52c1.067 7.467 2.827 12.853 5.28 16.16z m142.56 1.44c15.787 0 29.547-2.667 41.28-8s21.547-12.907 29.44-22.72c7.893-9.813 13.76-21.6 17.6-35.36 3.84-13.76 5.76-29.067 5.76-45.92 0-15.787-1.867-30.453-5.6-44-3.733-13.547-9.493-25.28-17.28-35.2-7.787-9.92-17.707-17.707-29.76-23.36-12.053-5.653-26.4-8.48-43.04-8.48h-59.2c-7.68 0-12.48 1.227-14.4 3.68-1.92 2.453-2.88 6.027-2.88 10.72V761.8c0 4.693 1.013 8.267 3.04 10.72 2.027 2.453 6.773 3.68 14.24 3.68h60.8z m0-33.28h-36.48V586.44h28.48c11.733 0 21.44 1.707 29.12 5.12 7.68 3.413 13.867 8.373 18.56 14.88 4.693 6.507 8 14.56 9.92 24.16s2.88 20.48 2.88 32.64c0 53.12-17.493 79.68-52.48 79.68z" fill="#FFFFFF" p-id="32217"></path></svg>