<?xml version="1.0" standalone="no"?><!DOCTYPE svg PUBLIC "-//W3C//DTD SVG 1.1//EN" "http://www.w3.org/Graphics/SVG/1.1/DTD/svg11.dtd"><svg t="1621310110394" class="icon" viewBox="0 0 1024 1024" version="1.1" xmlns="http://www.w3.org/2000/svg" p-id="64593" data-spm-anchor-id="a313x.7781069.0.i77" xmlns:xlink="http://www.w3.org/1999/xlink" width="200" height="200"><defs><style type="text/css"></style></defs><path d="M621.397333 488.618667h-35.84v144.213333h35.157334c24.746667 0 42.837333-5.973333 54.272-17.749333 11.264-11.776 16.896-29.866667 16.896-54.272 0-24.746667-5.632-43.008-16.725334-54.613334-11.264-11.776-29.184-17.578667-53.76-17.578666z" fill="#4988FD" p-id="64594" data-spm-anchor-id="a313x.7781069.0.i76" class="selected"></path><path d="M616.277333 129.024H222.890667c-18.773333 0-34.133333 15.36-34.133334 34.133333v697.856c0 18.773333 15.36 34.133333 34.133334 34.133334h578.389333c18.773333 0 34.133333-15.36 34.133333-34.133334V347.989333L616.277333 129.024z m-98.645333 529.237333h-29.696v-139.264h-1.024l-59.733333 139.264h-25.6l-59.733334-139.264h-1.024v139.264H310.613333V463.189333h35.157334l67.925333 156.16h0.853333l67.754667-156.16h35.157333v195.072z m180.224-26.282666c-16.384 17.408-40.277333 26.282667-71.509333 26.282666h-70.485334V463.189333h70.997334c31.232 0 55.125333 8.874667 71.509333 26.453334 15.36 16.384 22.869333 40.106667 22.869333 70.997333 0 30.549333-7.68 54.272-23.381333 71.338667z" fill="#4988FD" p-id="64595" data-spm-anchor-id="a313x.7781069.0.i74" class="selected"></path><path d="M616.277333 129.024l218.965334 218.965333h-170.325334c-26.965333 0-48.64-21.845333-48.64-48.64V129.024z" fill="#7BC0FF" p-id="64596"></path></svg>