<?xml version="1.0" standalone="no"?><!DOCTYPE svg PUBLIC "-//W3C//DTD SVG 1.1//EN" "http://www.w3.org/Graphics/SVG/1.1/DTD/svg11.dtd"><svg t="1621343438439" class="icon" viewBox="0 0 1024 1024" version="1.1" xmlns="http://www.w3.org/2000/svg" p-id="2380" xmlns:xlink="http://www.w3.org/1999/xlink" width="200" height="200"><defs><style type="text/css"></style></defs><path d="M202.966645 860.074533c-38.257326 0-69.339228-31.080879-69.339228-69.339228l0-589.383438c0-38.257326 31.082926-69.339228 69.339228-69.339228l218.040968-0.135076c24.985044 6.364965 24.64633 37.107129 24.64633 67.848271l0 105.634876c0 19.095917 15.572674 34.669614 34.669614 34.669614l104.008842 0c34.600029 0 69.339228 0.169869 69.339228 34.669614l0 131.262556c21.803585-9.072633 45.098127-15.199167 69.339228-18.281365l0-147.650805c0-36.836977-34.264385-72.181973-94.80011-131.50201-8.462742-8.327666-17.130146-16.790408-25.663496-25.39232-8.600889-8.532327-17.063631-17.199731-25.39232-25.662473-59.319014-60.536748-94.665033-94.80011-131.500986-94.80011l-242.687298 0c-76.449159 0-138.678456 62.228273-138.678456 138.678456l0 589.383438c0 76.450183 62.229297 138.678456 138.678456 138.678456l346.662371 0c-17.301038-20.721951-31.521924-44.047192-42.050722-69.339228L202.966645 860.074533z" p-id="2381" fill="#4988FD"></path><path d="M757.680469 554.548048c-111.289666 0-201.517643 90.227977-201.517643 201.51662 0 111.320365 90.226954 201.51662 201.517643 201.51662 111.289666 0 201.51662-90.196255 201.51662-201.51662C959.197088 644.776026 868.970134 554.548048 757.680469 554.548048zM861.688287 790.735305l-69.339228 0 0 69.339228-69.339228 0 0-69.339228-69.339228 0 0-69.339228 69.339228 0 0-69.339228 69.339228 0 0 69.339228 69.339228 0L861.688287 790.735305z" p-id="2382" fill="#4988FD"></path></svg>