<?xml version="1.0" standalone="no"?><!DOCTYPE svg PUBLIC "-//W3C//DTD SVG 1.1//EN" "http://www.w3.org/Graphics/SVG/1.1/DTD/svg11.dtd"><svg t="1621343445108" class="icon" viewBox="0 0 1029 1024" version="1.1" xmlns="http://www.w3.org/2000/svg" p-id="2608" xmlns:xlink="http://www.w3.org/1999/xlink" width="200.9765625" height="200"><defs><style type="text/css"></style></defs><path d="M625.823883 150.280702l272.397914 0c17.362029 0 31.431889-14.07106 31.431889-31.428491 0-17.366625-14.069861-31.431889-31.431889-31.431889L625.823883 87.420321c-17.362029 0-31.428491 14.065264-31.428491 31.431889C594.396591 136.209642 608.461855 150.280702 625.823883 150.280702zM856.316809 209.684426 646.779076 209.684426c-60.101451 0-96.331487-28.65817-107.314841-54.282796-22.570297-52.67009-102.557066-92.387561-186.037267-92.387561L164.843628 63.014068c-86.661843 0-157.15385 70.48621-157.15385 157.149253l0 586.677832c0 86.650451 70.497603 157.143457 157.15385 157.143457l691.472981 0c86.656047 0 157.15365-70.493006 157.15365-157.143457L1013.470259 366.829082C1013.470459 280.178631 942.971657 209.684426 856.316809 209.684426zM950.604282 806.842353c0 51.992949-42.294724 94.287673-94.287673 94.287673L164.843628 901.130026c-51.99175 0-94.293469-42.294724-94.293469-94.287673L70.550159 220.163321c0-51.992949 42.30152-94.288872 94.293469-94.288872l188.58334 0c60.090059 0 117.282283 28.669562 128.258841 54.283995 22.570497 52.667691 81.597277 92.387561 165.093467 92.387561l209.537534 0c51.992949 0 94.287673 42.294724 94.287673 94.281877L950.604482 806.842353zM689.886449 555.023886l-147.028914 0 0-147.297932c0-17.921849-14.404434-32.583708-32.008898-32.583708-17.604664 0-32.008898 14.663058-32.008898 32.583708l0 147.299131-147.56695 0c-17.921849 0-32.583708 14.403235-32.583708 32.007699 0 17.604664 14.663058 32.007699 32.583708 32.007699l147.568149 0 0 147.299131c0 17.921849 14.404434 32.583708 32.008898 32.583708 17.604664 0 32.008898-14.663058 32.008898-32.583708l0-147.299131 147.027915 0c17.921849 0 32.583708-14.403235 32.583708-32.007699C722.470357 569.42832 707.807299 555.023886 689.886449 555.023886z" p-id="2609" fill="#4988FD"></path></svg>