<svg xmlns="http://www.w3.org/2000/svg" xmlns:xlink="http://www.w3.org/1999/xlink" width="24" height="24" preserveAspectRatio="xMidYMid meet" viewBox="0 0 24 24" style="-ms-transform: rotate(360deg); -webkit-transform: rotate(360deg); transform: rotate(360deg);"><path d="M10 2a1 1 0 0 1 1 1v4a1 1 0 0 1-1 1H8v2h5V9a1 1 0 0 1 1-1h6a1 1 0 0 1 1 1v4a1 1 0 0 1-1 1h-6a1 1 0 0 1-1-1v-1H8v6h5v-1a1 1 0 0 1 1-1h6a1 1 0 0 1 1 1v4a1 1 0 0 1-1 1h-6a1 1 0 0 1-1-1v-1H7a1 1 0 0 1-1-1V8H4a1 1 0 0 1-1-1V3a1 1 0 0 1 1-1h6zm9 16h-4v2h4v-2zm0-8h-4v2h4v-2zM9 4H5v2h4V4z" fill="#4988FD"/><rect x="0" y="0" width="24" height="24" fill="rgba(0, 0, 0, 0)" /></svg>