<?xml version="1.0" standalone="no"?><!DOCTYPE svg PUBLIC "-//W3C//DTD SVG 1.1//EN" "http://www.w3.org/Graphics/SVG/1.1/DTD/svg11.dtd"><svg t="1621309187653" class="icon" viewBox="0 0 1024 1024" version="1.1" xmlns="http://www.w3.org/2000/svg" p-id="21276" data-spm-anchor-id="a313x.7781069.0.i21" xmlns:xlink="http://www.w3.org/1999/xlink" width="200" height="200"><defs><style type="text/css"></style></defs><path d="M802.496454 305.747518c12.346099-15.977305 32.680851-42.848227 42.121986-61.004256-5.083688-13.07234-50.110638-55.194326-62.456738-66.087943-15.251064 4.357447-48.658156 31.95461-63.90922 42.848227-31.95461 22.513475-43.574468 4.357447-74.076595-9.441135-26.870922-11.619858-63.90922-13.798582-71.171632-35.585815-7.988652-25.41844-7.262411-65.361702-16.703546-92.232624l-92.232624 0.726241c-5.809929 25.41844-9.441135 70.44539-16.703546 91.506383-8.714894 22.513475-46.479433 26.870922-70.44539 37.038298-33.407092 15.251064-39.217021 32.680851-74.802837 7.262411-14.524823-10.167376-45.02695-36.312057-61.004255-41.395745l-63.90922 65.361702c10.893617 21.060993 31.228369 46.479433 44.300709 64.635461 21.787234 29.049645 0.726241 47.931915-10.893617 75.529078-11.619858 26.870922-11.619858 58.825532-37.038298 66.814185-21.787234 6.53617-63.90922 10.893617-89.327659 15.251064l0.726241 93.685106c21.787234 4.357447 71.897872 9.441135 91.506383 15.977305 23.239716 8.714894 26.870922 46.479433 37.038298 70.44539 14.524823 33.407092 34.133333 40.669504 7.988652 74.802837-9.441135 12.346099-36.312057 47.931915-42.121986 61.004255l65.361702 63.90922c18.156028-8.714894 49.384397-32.680851 64.635461-44.300709 30.502128-23.239716 45.02695-1.452482 74.802837 10.893617 70.44539 27.597163 60.278014 4.357447 73.350355 82.791489 3.631206 18.156028 2.178723 31.95461 13.798581 43.574468l84.970213-1.452482c13.798582-24.692199 9.441135-62.456738 18.156029-90.053901 7.262411-23.239716 27.597163-18.88227 69.719149-37.038297 33.407092-13.798582 39.217021-32.680851 73.350354-8.714894 18.156028 12.346099 42.121986 31.228369 61.004255 42.121986 11.619858-5.083688 61.730496-55.194326 66.087944-66.087944-10.893617-20.334752-30.502128-43.574468-43.574468-63.182978-20.334752-29.049645 0-45.753191 10.893617-73.350355 11.619858-28.323404 13.07234-61.730496 39.217021-68.992908 26.870922-6.53617 63.90922-3.631206 88.601418-16.703546l-1.452482-92.232624h-0.726241c-137.985816-20.334752-91.506383-11.619858-127.81844-87.148936-13.07234-26.870922-28.323404-42.848227-7.262411-71.171631z m-326.08227 2.178723c123.460993-22.513475 220.777305 65.361702 239.659575 166.30922 23.239716 124.187234-66.087943 222.956028-166.30922 241.838298-124.187234 23.239716-224.408511-66.814184-241.838298-166.30922-23.239716-127.81844 65.361702-223.68227 168.487943-241.838298z" p-id="21277" data-spm-anchor-id="a313x.7781069.0.i22" class="" fill="#4988FD"></path></svg>