<?xml version="1.0" standalone="no"?><!DOCTYPE svg PUBLIC "-//W3C//DTD SVG 1.1//EN" "http://www.w3.org/Graphics/SVG/1.1/DTD/svg11.dtd"><svg t="1621312747420" class="icon" viewBox="0 0 1116 1024" version="1.1" xmlns="http://www.w3.org/2000/svg" p-id="103716" xmlns:xlink="http://www.w3.org/1999/xlink" width="217.96875" height="200"><defs><style type="text/css"></style></defs><path d="M1068.729736 0.239196a46.483843 46.483843 0 0 1 46.483843 46.483844v185.855641a46.483843 46.483843 0 0 1-46.483843 46.483843H325.147707a46.483843 46.483843 0 0 1-46.483843-46.483843v-46.483843H139.212334a46.483843 46.483843 0 0 0-46.164915 41.062057v237.841003h185.855641v-46.483844a46.483843 46.483843 0 0 1 46.483843-46.483843h743.582029a46.483843 46.483843 0 0 1 46.483844 46.483843v186.015106a46.483843 46.483843 0 0 1-46.483844 46.483843H325.147707a46.483843 46.483843 0 0 1-46.483843-46.483843v-46.483843H92.808222v232.259752a46.483843 46.483843 0 0 0 41.062058 46.164915H278.743596v-46.164915a46.483843 46.483843 0 0 1 46.483843-46.483843h743.582029a46.483843 46.483843 0 0 1 46.483844 46.483843v185.855641a46.483843 46.483843 0 0 1-46.483844 46.483843H325.147707a46.483843 46.483843 0 0 1-46.483843-46.483843v-46.483843H139.212334A139.45153 139.45153 0 0 1 0 798.437748V232.578681a139.45153 139.45153 0 0 1 131.239119-139.212334H278.663864V46.404111a46.483843 46.483843 0 0 1 46.483843-46.483843z m0 0" p-id="103717" data-spm-anchor-id="a313x.7781069.0.i102" class="selected" fill="#4988FD"></path></svg>