<?xml version="1.0" standalone="no"?><!DOCTYPE svg PUBLIC "-//W3C//DTD SVG 1.1//EN" "http://www.w3.org/Graphics/SVG/1.1/DTD/svg11.dtd"><svg t="1621303110401" class="icon" viewBox="0 0 1024 1024" version="1.1" xmlns="http://www.w3.org/2000/svg" p-id="6347" xmlns:xlink="http://www.w3.org/1999/xlink" width="200" height="200"><defs><style type="text/css"></style></defs><path d="M498 420v396c0 11.044-8.954 20-20 20H272c-44.182 0-80-35.816-80-80V420c0-11.046 8.954-20 20-20h266c11.046 0 20 8.954 20 20z" fill="#4988FD" p-id="6348"></path><path d="M458 836h-186c-44.112 0-80-35.888-80-80V440c0-22.056 17.944-40 40-40h226c22.056 0 40 17.944 40 40v356c0 22.056-17.944 40-40 40zM252 460v296c0 11.028 8.972 20 20 20h166V460h-186z" fill="#4988FD" p-id="6349"></path><path d="M526 612V216c0-11.046 8.954-20 20-20h206c44.184 0 80 35.818 80 80v336c0 11.044-8.954 20-20 20H546c-11.046 0-20-8.956-20-20z" fill="#4988FD" p-id="6350"></path><path d="M792 632H566c-22.056 0-40-17.944-40-40V236c0-22.056 17.944-40 40-40h186c44.112 0 80 35.888 80 80v316c0 22.056-17.944 40-40 40z m-206-60h186V276c0-11.028-8.972-20-20-20h-166v316z" fill="#4988FD" p-id="6351"></path><path d="M498 216v136c0 11.046-8.954 20-20 20H212c-11.046 0-20-8.954-20-20v-76c0-44.182 35.818-80 80-80h206c11.046 0 20 8.954 20 20z" fill="#DFECFD" p-id="6352"></path><path d="M458 372H232c-22.056 0-40-17.944-40-40v-56c0-44.112 35.888-80 80-80h186c22.056 0 40 17.944 40 40v96c0 22.056-17.944 40-40 40z m-206-60h186v-56h-166c-11.028 0-20 8.972-20 20v36z" fill="#DFECFD" p-id="6353"></path><path d="M526 816v-136c0-11.044 8.954-20 20-20h266c11.046 0 20 8.956 20 20v76c0 44.184-35.816 80-80 80H546c-11.046 0-20-8.956-20-20z" fill="#DFECFD" p-id="6354"></path><path d="M752 836h-186c-22.056 0-40-17.944-40-40v-96c0-22.056 17.944-40 40-40h226c22.056 0 40 17.944 40 40v56c0 44.112-35.888 80-80 80z m-166-60h166c11.028 0 20-8.972 20-20v-36h-186v56z" fill="#DFECFD" p-id="6355"></path></svg>