<?xml version="1.0" standalone="no"?><!DOCTYPE svg PUBLIC "-//W3C//DTD SVG 1.1//EN" "http://www.w3.org/Graphics/SVG/1.1/DTD/svg11.dtd"><svg t="1621312534467" class="icon" viewBox="0 0 1137 1024" version="1.1" xmlns="http://www.w3.org/2000/svg" p-id="99545" data-spm-anchor-id="a313x.7781069.0.i94" xmlns:xlink="http://www.w3.org/1999/xlink" width="222.0703125" height="200"><defs><style type="text/css"></style></defs><path d="M519.224889 795.079111c-176.184889 0-319.146667-212.081778-319.146667-219.306667 0-7.964444 142.961778-220.046222 319.146667-220.046222 176.924444 0 322.275556 221.297778 319.886222 220.046222-2.389333-1.991111-142.961778 219.306667-319.886222 219.306667z m-1.251556-369.038222c-74.695111 0-134.997333 65.080889-134.997333 146.204444 0 80.213333 60.302222 145.692444 134.997333 145.692445 75.093333 0 135.793778-65.422222 135.793778-145.749334 0-81.066667-60.700444-146.204444-135.793778-146.204444zM517.688889 636.131556c-35.612444 0-64.341333-31.175111-64.341333-69.12s28.785778-68.664889 64.284444-68.664889c35.555556 0 63.943111 30.72 63.943111 68.664889s-28.387556 69.12-63.886222 69.12zM952.035556 48.469333a162.816 162.816 0 1 0 0 325.632 162.816 162.816 0 0 0 0-325.632z m75.889777 126.179556a38.684444 38.684444 0 0 1-11.946666-1.877333l-41.756445 72.760888a46.307556 46.307556 0 1 1-67.242666 3.640889l-25.941334-23.722666a30.208 30.208 0 1 1 10.979556-9.159111l25.713778 23.495111a46.364444 46.364444 0 0 1 44.828444-2.389334l40.96-71.452444a38.798222 38.798222 0 1 1 24.462222 8.647111h-0.056889z m-75.889777 271.303111h-0.739556v399.644444a56.433778 56.433778 0 0 1-56.433778 56.433778H144.384a56.433778 56.433778 0 0 1-56.433778-56.433778v-540.444444c0-31.118222 25.258667-56.32 56.433778-56.32h576.227556a234.268444 234.268444 0 0 1-3.299556-37.546667c0-12.288 1.251556-24.291556 3.072-36.067555H84.081778c-33.735111 0-61.155556 27.420444-61.155556 61.212444v677.944889c0 33.792 27.420444 61.212444 61.155556 61.212445H955.164444c33.792 0 61.212444-27.420444 61.212445-61.212445V436.792889a234.382222 234.382222 0 0 1-64.284445 9.159111z" p-id="99546" data-spm-anchor-id="a313x.7781069.0.i92" class="selected" fill="#4988FD"></path></svg>