<?xml version="1.0" standalone="no"?><!DOCTYPE svg PUBLIC "-//W3C//DTD SVG 1.1//EN" "http://www.w3.org/Graphics/SVG/1.1/DTD/svg11.dtd"><svg t="1621301602258" class="icon" viewBox="0 0 1024 1024" version="1.1" xmlns="http://www.w3.org/2000/svg" p-id="7070" xmlns:xlink="http://www.w3.org/1999/xlink" width="200" height="200"><defs><style type="text/css"></style></defs><path d="M272 806c-27.614 0-50-22.386-50-50V360c0-27.614 22.386-50 50-50h18.6v-25.542c0-32.286 27.578-58.46 61.6-58.46h320.332c34.028 0 61.6 26.174 61.6 58.46V310H752c27.614 0 50 22.386 50 50v396c0 27.614-22.386 50-50 50H272z" fill="#4988FD" p-id="7071"></path><path d="M752 836H272c-44.112 0-80-35.888-80-80V360c0-40.27 29.906-73.686 68.676-79.202 1.996-47.086 42.284-84.8 91.522-84.8h320.332c49.278 0 89.592 37.77 91.528 84.91C802.47 286.738 832 319.986 832 360v396c0 44.112-35.888 80-80 80zM272 340c-11.028 0-20 8.972-20 20v396c0 11.028 8.972 20 20 20h480c11.028 0 20-8.972 20-20V360c0-11.028-8.972-20-20-20h-47.87v-55.542c0-15.694-14.176-28.46-31.6-28.46H352.2c-17.424 0-31.6 12.766-31.6 28.46V340H272z" fill="#4988FD" p-id="7072"></path><path d="M639.3 365H383c-16.568 0-30-13.432-30-30s13.432-30 30-30h256.3c16.568 0 30 13.432 30 30s-13.43 30-30 30z" fill="#DFECFD" p-id="7073"></path><path d="M192 441h640v60H192z" fill="#FFFFFF" p-id="7074"></path><path d="M352 596m-44 0a44 44 0 1 0 88 0 44 44 0 1 0-88 0Z" fill="#DFECFD" p-id="7075"></path></svg>