<?xml version="1.0" standalone="no"?><!DOCTYPE svg PUBLIC "-//W3C//DTD SVG 1.1//EN" "http://www.w3.org/Graphics/SVG/1.1/DTD/svg11.dtd"><svg t="1621439814660" class="icon" viewBox="0 0 1024 1024" version="1.1" xmlns="http://www.w3.org/2000/svg" p-id="13373" xmlns:xlink="http://www.w3.org/1999/xlink" width="20" height="20"><defs><style type="text/css"></style></defs><path d="M1005.38 7.79c-18.62-9.23-37.24-9.23-46.54 0L27.93 469.31C9.31 469.31 0 487.77 0 506.23s9.31 36.92 18.62 36.92L242.04 681.6c18.62 9.23 37.24 9.23 55.85-9.23l493.38-443.06 18.62 9.23L363.05 709.3c-9.31 9.23-9.31 18.46-9.31 27.69v203.07c0 18.46 9.31 36.92 27.93 46.15 18.62 9.23 37.24 0 46.55-9.23l111.71-110.77 223.42 147.69c9.31 9.23 18.62 9.23 27.93 9.23h18.62c18.62-9.23 27.93-18.46 27.93-36.92L1024 63.17c0-27.69 0-46.15-18.62-55.38z" p-id="13374" fill="#4988FD"></path></svg>