<?xml version="1.0" standalone="no"?><!DOCTYPE svg PUBLIC "-//W3C//DTD SVG 1.1//EN" "http://www.w3.org/Graphics/SVG/1.1/DTD/svg11.dtd"><svg t="1621304532165" class="icon" viewBox="0 0 1228 1024" version="1.1" xmlns="http://www.w3.org/2000/svg" p-id="10782" xmlns:xlink="http://www.w3.org/1999/xlink" width="239.84375" height="200"><defs><style type="text/css"></style></defs><path d="M903.4752 325.632h69.12v116.5312l176.3328-204.8L972.5952 36.864v133.0176h-69.0176c-197.8368 0-326.8608 152.3712-425.3696 286.8224-88.4736 120.832-164.9664 234.9056-288.3584 234.9056H79.872v155.8528h109.9776c197.7344 0 309.248-161.9968 407.9616-296.448 88.3712-120.832 181.9648-225.28 305.664-225.28z m-535.9616 89.1904l25.6-34.7136c20.992-28.5696 43.008-58.7776 66.9696-88.8832-70.8608-68.7104-156.16-119.3984-270.336-119.3984H79.872V327.68s29.696-1.536 109.9776 0c77.7216 1.6384 126.464 34.7136 177.664 87.1424z m605.0816 282.7264h-69.0176c-75.3664 0-150.528-43.6224-204.3904-101.4784a1115.136 1115.136 0 0 1-16.384 22.1184c-23.552 32.256-48.9472 66.9696-76.8 101.1712 72.704 73.728 177.9712 134.144 297.5744 134.144h69.0176V987.136l176.3328-205.2096-176.3328-200.0896v115.712z" fill="#4988FD" p-id="10783"></path></svg>