<?xml version="1.0" standalone="no"?><!DOCTYPE svg PUBLIC "-//W3C//DTD SVG 1.1//EN" "http://www.w3.org/Graphics/SVG/1.1/DTD/svg11.dtd"><svg t="1621309004059" class="icon" viewBox="0 0 1024 1024" version="1.1" xmlns="http://www.w3.org/2000/svg" p-id="7135" xmlns:xlink="http://www.w3.org/1999/xlink" width="200" height="200"><defs><style type="text/css"></style></defs><path d="M44.373333 418.133333A394.24 394.24 0 0 1 279.04 68.266667 380.586667 380.586667 0 0 1 682.666667 143.36a360.106667 360.106667 0 0 1 90.453333 426.666667A85.333333 85.333333 0 0 0 801.28 682.666667c55.466667 51.2 104.96 108.373333 160.426667 160.426666s0 69.12-25.6 95.573334-46.933333 64.853333-90.453334 17.92S736.426667 853.333333 682.666667 796.16A85.333333 85.333333 0 0 0 569.173333 768 378.88 378.88 0 0 1 44.373333 418.133333z" fill="#4988FD" p-id="7136" data-spm-anchor-id="a313x.7781069.0.i2" class="selected"></path><path d="M426.666667 162.133333A262.826667 262.826667 0 0 1 687.786667 426.666667 273.066667 273.066667 0 0 1 426.666667 682.666667a262.826667 262.826667 0 0 1-256-261.973334A256 256 0 0 1 426.666667 162.133333z" fill="#FBFBFB" p-id="7137"></path><path d="M295.253333 516.266667a128.853333 128.853333 0 0 1-52.053333-166.4 124.586667 124.586667 0 0 1 129.706667-85.333334c21.333333 0 47.786667 5.12 49.493333 25.6a42.666667 42.666667 0 0 1-42.666667 45.226667c-77.653333 0-94.72 40.96-63.146666 108.373333 13.653333 30.72-5.973333 50.346667-21.333334 72.533334z" fill="#FE883A" p-id="7138"></path></svg>