<svg xmlns="http://www.w3.org/2000/svg" xmlns:xlink="http://www.w3.org/1999/xlink" width="16" height="16" preserveAspectRatio="xMidYMid meet" viewBox="0 0 16 16" style="-ms-transform: rotate(360deg); -webkit-transform: rotate(360deg); transform: rotate(360deg);"><g fill="none"><path d="M8.808 2.102a.9.9 0 0 0-1.614 0L5.673 5.184l-3.401.494a.9.9 0 0 0-.5 1.535l2.462 2.4L3.653 13a.9.9 0 0 0 1.306.948l.91-.478a5.486 5.486 0 0 1-.461-.887l-.735.386l.345-2.015a5.576 5.576 0 0 1 .138-1.76a.9.9 0 0 0-.186-.261L2.616 6.639l3.253-.473a.9.9 0 0 0 .677-.492l1.455-2.948L9.2 5.155a5.497 5.497 0 0 1 1.041-.149L8.808 2.102z" fill="#4988FD"/><path d="M6 10.5a4.5 4.5 0 1 0 9 0a4.5 4.5 0 0 0-9 0zm1 0a3.5 3.5 0 0 1 5.596-2.803l-4.9 4.899A3.484 3.484 0 0 1 7 10.5zm3.5 3.5c-.786 0-1.512-.26-2.096-.697l4.9-4.9A3.5 3.5 0 0 1 10.5 14z" fill="#4988FD"/></g><rect x="0" y="0" width="16" height="16" fill="rgba(0, 0, 0, 0)" /></svg>