<?xml version="1.0" standalone="no"?><!DOCTYPE svg PUBLIC "-//W3C//DTD SVG 1.1//EN" "http://www.w3.org/Graphics/SVG/1.1/DTD/svg11.dtd"><svg t="1621305117133" class="icon" viewBox="0 0 1024 1024" version="1.1" xmlns="http://www.w3.org/2000/svg" p-id="1271" xmlns:xlink="http://www.w3.org/1999/xlink" width="200" height="200"><defs><style type="text/css"></style></defs><path d="M0 512a512 512 0 1 0 1024 0A512 512 0 0 0 0 512z" fill="#4988FD" p-id="1272" data-spm-anchor-id="a313x.7781069.0.i0" class="selected"></path><path d="M192.128 409.792l0.064 1.088 0.128 1.28 0.128 0.896c0.128 0.448 0.128 1.024 0.192 1.472l0.128 0.768 0.32 1.408 0.128 0.64 0.32 1.344 0.192 0.768c0.128 0.448 0.256 0.896 0.448 1.216l0.384 0.896 0.384 1.088 0.384 0.96c0.064 0.384 0.32 0.64 0.384 1.024l0.448 1.088c0.128 0.192 0.256 0.576 0.448 0.768 0.256 0.448 0.448 0.768 0.576 1.216a2.304 2.304 0 0 0 0.448 0.64l0.64 1.28a2.304 2.304 0 0 0 0.448 0.64l0.768 1.152 0.448 0.64c0.192 0.512 0.512 0.832 0.832 1.28l0.576 0.64 0.768 0.96 0.768 0.896 0.64 0.768 1.536 1.664c0.576 0.512 1.152 0.96 1.664 1.536l0.768 0.64 0.896 0.768 0.96 0.768 0.64 0.576 1.28 0.896c0.192 0.064 0.384 0.32 0.64 0.384 0.448 0.256 0.768 0.576 1.216 0.768a2.304 2.304 0 0 1 0.64 0.448l1.216 0.64a2.304 2.304 0 0 1 0.64 0.448l1.28 0.64c0.192 0 0.512 0.192 0.704 0.384l1.088 0.448 1.024 0.448 0.96 0.32 1.088 0.448c0.384 0.064 0.64 0.192 0.896 0.32l1.28 0.448c0.192 0.064 0.512 0.064 0.704 0.192l1.28 0.32 0.832 0.256 1.408 0.32 0.768 0.128a6.4 6.4 0 0 0 1.408 0.192l0.896 0.128a5.376 5.376 0 0 0 1.28 0.064l1.152 0.128 0.96 0.128 2.24 0.128h547.52a45.056 45.056 0 1 0 0-90.176H345.664l28.608-28.544a44.992 44.992 0 1 0-63.68-63.68L205.184 374.592l-1.536 1.664-0.64 0.768-0.768 0.896-0.768 0.96-0.576 0.64-0.896 1.28c-0.064 0.192-0.32 0.384-0.384 0.64-0.256 0.448-0.64 0.768-0.832 1.216-0.064 0.192-0.192 0.448-0.384 0.64l-0.64 1.216c-0.128 0.192-0.256 0.448-0.512 0.64-0.192 0.448-0.384 0.768-0.512 1.28l-0.448 0.704-0.448 1.088-0.448 1.024-0.32 0.96-0.448 1.088c-0.064 0.384-0.192 0.576-0.32 0.896l-0.448 1.216c-0.128 0.192-0.128 0.576-0.192 0.768l-0.32 1.28c-0.128 0.256-0.128 0.512-0.128 0.704l-0.32 1.408-0.128 0.768a6.4 6.4 0 0 0-0.192 1.472l-0.128 0.832c-0.128 0.448-0.128 0.896-0.128 1.344l-0.128 1.088-0.064 1.088L192 406.4c0 0.768 0 1.536 0.128 2.176-0.128 0.576 0 0.896 0 1.216z m629.632 217.6a6.016 6.016 0 0 0 0.768-1.024l0.576-0.64 0.896-1.28c0.064-0.192 0.32-0.384 0.384-0.64 0.256-0.448 0.64-0.768 0.832-1.216 0.064-0.192 0.192-0.448 0.384-0.64l0.64-1.216a2.304 2.304 0 0 1 0.512-0.64c0.192-0.448 0.384-0.768 0.512-1.28l0.448-0.704 0.448-1.088 0.448-1.024 0.32-0.96 0.448-1.088c0.064-0.384 0.192-0.576 0.32-0.896l0.448-1.28c0.128-0.128 0.128-0.512 0.192-0.704l0.32-1.28c0.128-0.256 0.128-0.512 0.128-0.704l0.32-1.408 0.128-0.768a6.4 6.4 0 0 0 0.192-1.472l0.128-0.832c0.128-0.448 0.128-0.896 0.128-1.344l0.128-1.088 0.064-1.088 0.128-2.24c0-0.768 0-1.536-0.128-2.176l-0.064-1.088c0-0.32 0-0.768-0.128-1.088l-0.128-1.344-0.128-0.896c-0.064-0.448-0.064-0.96-0.192-1.408l-0.128-0.768-0.32-1.408c-0.128-0.256-0.128-0.448-0.128-0.64l-0.32-1.344c-0.064-0.256-0.064-0.576-0.192-0.768a3.968 3.968 0 0 0-0.448-1.28l-0.32-0.832-0.448-1.088-0.32-1.024-0.448-0.96-0.448-1.088c-0.128-0.256-0.192-0.576-0.448-0.768-0.192-0.448-0.448-0.768-0.512-1.28l-0.448-0.64-0.64-1.152a2.304 2.304 0 0 0-0.448-0.64c-0.256-0.512-0.64-0.832-0.832-1.28l-0.384-0.64-0.896-1.216-0.576-0.64-0.768-1.024c-0.192-0.32-0.512-0.512-0.768-0.832l-0.64-0.768-1.536-1.664-1.664-1.536c-0.192-0.256-0.512-0.448-0.768-0.64-0.32-0.256-0.512-0.64-0.896-0.832l-0.96-0.768-0.64-0.512-1.28-0.896-0.64-0.448-1.216-0.768-0.64-0.448-1.216-0.64c-0.192-0.128-0.448-0.192-0.64-0.448-0.448-0.192-0.768-0.448-1.216-0.512l-0.768-0.448c-0.32-0.256-0.768-0.32-1.088-0.448l-1.024-0.448-0.96-0.32-1.088-0.448-0.896-0.32-1.216-0.448c-0.192-0.128-0.512-0.128-0.768-0.192l-1.28-0.384-0.768-0.192-1.472-0.32-0.768-0.128a6.4 6.4 0 0 0-1.408-0.192l-0.896-0.128c-0.448-0.128-0.896-0.128-1.28-0.128l-1.152-0.128-0.96-0.064-2.24-0.128H239.36a45.056 45.056 0 1 0 0 90.112h438.848l-28.608 28.608a44.992 44.992 0 1 0 63.68 63.68l105.408-105.472 1.536-1.6 0.64-0.768 0.896-1.024z" fill="#FFFFFF" p-id="1273"></path></svg>