<?xml version="1.0" standalone="no"?><!DOCTYPE svg PUBLIC "-//W3C//DTD SVG 1.1//EN" "http://www.w3.org/Graphics/SVG/1.1/DTD/svg11.dtd"><svg t="1621312879863" class="icon" viewBox="0 0 1024 1024" version="1.1" xmlns="http://www.w3.org/2000/svg" p-id="108224" xmlns:xlink="http://www.w3.org/1999/xlink" width="200" height="200"><defs><style type="text/css"></style></defs><path d="M91.6 857.5c-15.5 0-28-12.5-28-28V226.3c0-15.5 12.5-28 28-28s28 12.5 28 28v603.2c0 15.5-12.6 28-28 28zM923.6 608.6H362.7c-6.6 0-12-5.4-12-12V459.3c0-6.6 5.4-12 12-12h560.9c6.6 0 12 5.4 12 12v137.3c0 6.6-5.4 12-12 12z" fill="#828CA0" p-id="108225"></path><path d="M923.4 636.6H363c-22.2 0-40.2-18-40.2-40.2V459.5c0-22.2 18-40.2 40.2-40.2h560.4c22.2 0 40.2 18 40.2 40.2v136.9c0 22.1-18 40.2-40.2 40.2z m-544.7-56h528.9V475.3H378.7v105.3zM923.6 910.2H362.7c-6.6 0-12-5.4-12-12V760.9c0-6.6 5.4-12 12-12h560.9c6.6 0 12 5.4 12 12v137.3c0 6.6-5.4 12-12 12z" fill="#828CA0" p-id="108226"></path><path d="M923.4 938.2H363c-22.2 0-40.2-18-40.2-40.2V761.1c0-22.2 18-40.2 40.2-40.2h560.4c22.2 0 40.2 18 40.2 40.2V898c0 22.2-18 40.2-40.2 40.2z m-544.7-56h528.9V776.9H378.7v105.3zM266.2 254.3H91.6c-15.5 0-28-12.5-28-28s12.5-28 28-28h174.6c15.5 0 28 12.5 28 28s-12.6 28-28 28zM334.9 555.9H91.6c-15.5 0-28-12.5-28-28s12.5-28 28-28h243.3c15.5 0 28 12.5 28 28s-12.5 28-28 28z" fill="#828CA0" p-id="108227"></path><path d="M347.1 857.5H91.6c-15.5 0-28-12.5-28-28s12.5-28 28-28h255.6c15.5 0 28 12.5 28 28-0.1 15.5-12.6 28-28.1 28z" fill="#828CA0" p-id="108228"></path><path d="M920.3 363.6H236.7c-22.2 0-40.2-18-40.2-40.2V127.1c0-22.2 18-40.2 40.2-40.2h683.7c22.2 0 40.2 18 40.2 40.2v196.4c-0.1 22.1-18.1 40.1-40.3 40.1z" fill="#67AEF7" p-id="108229" data-spm-anchor-id="a313x.7781069.0.i107" class="selected"></path></svg>