<?xml version="1.0" standalone="no"?><!DOCTYPE svg PUBLIC "-//W3C//DTD SVG 1.1//EN" "http://www.w3.org/Graphics/SVG/1.1/DTD/svg11.dtd"><svg t="1621344339149" class="icon" viewBox="0 0 1024 1024" version="1.1" xmlns="http://www.w3.org/2000/svg" p-id="13593" xmlns:xlink="http://www.w3.org/1999/xlink" width="200" height="200"><defs><style type="text/css"></style></defs><path d="M935.936 937.984H88.064c-36.864 0-65.536-28.672-65.536-65.536V151.552c0-36.864 28.672-65.536 65.536-65.536h849.92c36.864 0 65.536 28.672 65.536 65.536v718.848c-2.048 36.864-30.72 67.584-67.584 67.584z" fill="#FFFFFF" p-id="13594" data-spm-anchor-id="a313x.7781069.0.i15" class="selected"></path><path d="M1001.472 303.104H22.528V153.6c0-36.864 28.672-65.536 65.536-65.536h849.92c36.864 0 65.536 28.672 65.536 65.536v149.504z" fill="#C2CADD" p-id="13595" data-spm-anchor-id="a313x.7781069.0.i16" class="selected"></path><path d="M22.528 278.528h978.944v40.96H22.528zM22.528 493.568h978.944v40.96H22.528z" fill="#4988FD" p-id="13596" data-spm-anchor-id="a313x.7781069.0.i12" class=""></path><path d="M327.68 303.104h40.96v634.88h-40.96zM653.312 303.104h40.96v634.88h-40.96z" fill="#4988FD" p-id="13597" data-spm-anchor-id="a313x.7781069.0.i11" class=""></path><path d="M22.528 708.608h978.944v40.96H22.528z" fill="#4988FD" p-id="13598" data-spm-anchor-id="a313x.7781069.0.i10" class=""></path><path d="M935.936 958.464H88.064C40.96 958.464 2.048 919.552 2.048 872.448V151.552C2.048 104.448 40.96 65.536 88.064 65.536h849.92c47.104 0 86.016 38.912 86.016 86.016v718.848c-2.048 49.152-40.96 88.064-88.064 88.064zM88.064 106.496c-24.576 0-45.056 20.48-45.056 45.056v718.848c0 24.576 20.48 45.056 45.056 45.056h849.92c24.576 0 45.056-20.48 45.056-45.056V151.552c0-24.576-20.48-45.056-45.056-45.056H88.064z" fill="#4988FD" p-id="13599" data-spm-anchor-id="a313x.7781069.0.i8" class=""></path></svg>