<?xml version="1.0" standalone="no"?><!DOCTYPE svg PUBLIC "-//W3C//DTD SVG 1.1//EN" "http://www.w3.org/Graphics/SVG/1.1/DTD/svg11.dtd"><svg t="1621350235493" class="icon" viewBox="0 0 1024 1024" version="1.1" xmlns="http://www.w3.org/2000/svg" p-id="14436" xmlns:xlink="http://www.w3.org/1999/xlink" width="200" height="200"><defs><style type="text/css"></style></defs><path d="M23.272727 390.981818C23.272727 456.145455 79.127273 512 146.618182 512s123.345455-55.854545 123.345454-121.018182-55.854545-123.345455-123.345454-123.345454S23.272727 323.490909 23.272727 390.981818z m0 0M707.490909 879.709091c0 67.490909 55.854545 123.345455 123.345455 123.345454s123.345455-55.854545 123.345454-123.345454-55.854545-123.345455-123.345454-123.345455-123.345455 55.854545-123.345455 123.345455z m0 0M756.363636 144.290909c0 67.490909 55.854545 123.345455 123.345455 123.345455s123.345455-55.854545 123.345454-123.345455C1000.727273 79.127273 944.872727 23.272727 879.709091 23.272727c-67.490909 0-123.345455 55.854545-123.345455 121.018182z m0 0M316.509091 512c0 134.981818 109.381818 244.363636 244.363636 244.363636S805.236364 646.981818 805.236364 512s-109.381818-244.363636-244.363637-244.363636S316.509091 377.018182 316.509091 512z m0 0" p-id="14437" fill="#4988FD"></path><path d="M623.709091 653.963636l200.145454 258.327273 39.563637-30.254545-200.145455-258.327273-39.563636 30.254545zM188.509091 430.545455l193.163636 65.163636 16.290909-46.545455-193.163636-65.163636-16.290909 46.545455zM849.454545 134.981818l-176.872727 235.054546 39.563637 30.254545 176.872727-235.054545-39.563637-30.254546z m0 0" p-id="14438" fill="#4988FD"></path></svg>