<?xml version="1.0" standalone="no"?><!DOCTYPE svg PUBLIC "-//W3C//DTD SVG 1.1//EN" "http://www.w3.org/Graphics/SVG/1.1/DTD/svg11.dtd"><svg t="1621348713125" class="icon" viewBox="0 0 1024 1024" version="1.1" xmlns="http://www.w3.org/2000/svg" p-id="3716" data-spm-anchor-id="a313x.7781069.0.i3" xmlns:xlink="http://www.w3.org/1999/xlink" width="200" height="200"><defs><style type="text/css"></style></defs><path d="M856.819 617.767c-30.359-21.176-69.392-33.882-108.425-33.882-108.424 0-195.164 84.704-195.164 190.584 0 38.116 13.011 76.233 34.697 105.88H167.24c-26.022 0-43.37-16.942-43.37-42.353V118.015c0-25.412 17.348-42.353 43.37-42.353h650.545c26.022 0 43.37 16.941 43.37 42.353v499.753h-4.337zM705.024 287.42c13.01 0 21.684-8.47 21.684-21.176 0-12.705-8.673-21.176-21.684-21.176H271.328c-13.01 0-21.685 8.471-21.685 21.176 0 12.706 8.673 21.176 21.685 21.176h433.696z m0 211.76c13.01 0 21.684-8.47 21.684-21.177 0-12.705-8.673-21.175-21.684-21.175H271.328c-13.01 0-21.685 8.47-21.685 21.176s8.673 21.177 21.685 21.177h433.696zM266.991 668.59c-8.674 0-17.347 8.47-17.347 21.175s8.673 21.176 17.347 21.176H496.85c8.674 0 17.349-8.47 17.349-21.177 0-12.704-8.675-21.176-17.35-21.176H266.992z" p-id="3717" data-spm-anchor-id="a313x.7781069.0.i0" class="selected" fill="#4988FD"></path><path d="M770.079 753.292v-63.528c0-12.704-8.674-21.176-21.685-21.176-13.01 0-21.685 8.472-21.685 21.176v84.705c0 4.235 4.338 12.705 4.338 16.94 0 4.236 8.673 4.236 17.346 4.236h86.74c13.011 0 21.686-8.47 21.686-21.176s-8.674-21.177-21.686-21.177H770.08zM748.394 922.7c-82.402 0-151.793-67.762-151.793-148.231s69.391-148.233 151.793-148.233c82.403 0 151.794 67.764 151.794 148.233 0 80.469-69.391 148.23-151.794 148.23z" p-id="3718" data-spm-anchor-id="a313x.7781069.0.i2" class="selected" fill="#4988FD"></path></svg>