<?xml version="1.0" standalone="no"?><!DOCTYPE svg PUBLIC "-//W3C//DTD SVG 1.1//EN" "http://www.w3.org/Graphics/SVG/1.1/DTD/svg11.dtd"><svg t="1621349496291" class="icon" viewBox="0 0 1024 1024" version="1.1" xmlns="http://www.w3.org/2000/svg" p-id="4745" xmlns:xlink="http://www.w3.org/1999/xlink" width="200" height="200"><defs><style type="text/css"></style></defs><path d="M686.518221 45.425585c28.224832-32.80515 83.503832-40.932248 115.784026-9.214872 63.989383 55.587016 124.724653 115.227348 180.01184 179.208545 30.92329 31.453363 23.064298 86.221734-8.390088 114.418936C889.587196 419.845137 798.777981 503.091096 713.626625 592.009242c-19.776416-18.96698-39.292911-37.950334-59.09491-56.93778 80.805374-84.311221 169.718403-160.765497 245.38678-249.698992 21.948895-34.155914-23.323195-60.457954-40.405245-85.123726-38.492686-30.102598-67.780733-88.656179-121.733529-87.305415-91.933829 76.185146-169.455413 167.556157-256.221546 249.15664-14.372336-14.097066-42.542932-42.837644-56.656371-56.93778C512.719896 219.219817 596.78757 129.47791 686.518221 45.425585z" p-id="4746" fill="#4988FD"></path><path d="M309.94154 650.033773C431.944198 528.83748 552.859082 406.831752 675.131893 285.914822c13.82282 14.375405 41.774429 43.38102 55.597249 58.024531C609.782535 465.134623 488.629221 586.318636 367.422695 707.238636 348.167143 688.267563 329.188906 669.004847 309.94154 650.033773z" p-id="4747" fill="#4988FD"></path><path d="M48.849056 682.299641c77.260641-83.231633 161.030533-160.238494 239.932558-241.841024 14.668071 14.101159 43.397393 42.297338 57.770751 56.118112-73.497944 86.762039-176.22356 152.639422-231.561913 251.874541 36.880979 68.056002 101.402481 118.206192 165.953659 159.41371 79.169107-79.428004 159.127184-158.050666 238.288105-237.497089 14.383592 14.364149 43.401486 43.106774 57.771775 57.481156C495.668545 806.737768 418.382321 889.978611 335.701227 967.238228c-29.01994 33.361829-85.683475 40.946574-118.193913 8.144494C154.862555 919.262564 94.389252 860.151281 39.371194 796.718577 8.445858 764.721839 16.867668 710.216457 48.849056 682.299641z" p-id="4748" fill="#4988FD"></path></svg>