<?xml version="1.0" standalone="no"?><!DOCTYPE svg PUBLIC "-//W3C//DTD SVG 1.1//EN" "http://www.w3.org/Graphics/SVG/1.1/DTD/svg11.dtd"><svg t="1621305185169" class="icon" viewBox="0 0 1024 1024" version="1.1" xmlns="http://www.w3.org/2000/svg" p-id="5575" data-spm-anchor-id="a313x.7781069.0.i4" xmlns:xlink="http://www.w3.org/1999/xlink" width="200" height="200"><defs><style type="text/css"></style></defs><path d="M952.296 248L585.384 3.072c-9.408-6.848-22.208 0.832-22.208 11.968v488.96c0 11.904 12.8 18.752 22.208 11.904l366.912-243.2a14.4 14.4 0 0 0 0-24.704zM166.504 305.152l274.56-9.408c29.952 0 54.72-11.072 54.72-35.84 0-24.704-23.744-35.84-54.72-35.84l-274.56-9.344c-29.952 0-54.72 20.48-54.72 45.184 0 25.6 24.768 45.248 54.72 45.248z" fill="#4988FD" p-id="5576" data-spm-anchor-id="a313x.7781069.0.i0" class="selected"></path><path d="M70.824 750.592l366.912-244.928c9.408-6.784 22.208 0.896 22.208 11.968v488.96c0 11.968-12.8 18.752-22.208 11.968L70.824 773.632c-9.408-4.288-9.408-17.088 0-23.04z" fill="#CCDAFF" p-id="5577" data-spm-anchor-id="a313x.7781069.0.i5" class=""></path><path d="M856.616 808.64l-274.56-9.408c-29.952 0-54.72-11.072-54.72-35.84 0-24.768 23.744-35.84 54.72-35.84l274.56-9.408c29.952 0 54.72 20.48 54.72 45.248 0 24.768-24.768 45.248-54.72 45.248z" fill="#CCDAFF" p-id="5578" data-spm-anchor-id="a313x.7781069.0.i2" class=""></path></svg>